<svg xmlns="http://www.w3.org/2000/svg" viewBox="0 0 734.89 348.24"><g id="Layer_2" data-name="Layer 2"><g id="Layer_1-2" data-name="Layer 1"><path d="M323.47,321.14,319.6,325a9,9,0,0,0-5.65-1.8c-5.8,0-11.3,4-13.75,10s-.21,10,5.59,10a17.66,17.66,0,0,0,7.67-2.21l.77,3.81A22.38,22.38,0,0,1,303.45,348c-8.9,0-12.37-6.22-8.86-14.83s12-14.83,20.94-14.83C321.14,318.34,323.47,321.14,323.47,321.14Z" style="fill:#6b6b6b"/><path d="M344.81,347.19H339l.16-5.61H325.82l-4.41,5.61h-5.8l22.64-28.05H345Zm-15.09-10.42h9.47l.1-11.62h-.2Z" style="fill:#6b6b6b"/><path d="M373.07,319.14c7.35,0,9.58,4,7.46,9.22a15,15,0,0,1-8.29,8l-.08.2L375,347.19H368.6l-2.46-9.62H358.6l-3.92,9.62h-5.42l11.43-28.05Zm-1.88,4.61h-7L360.47,333h7a8.28,8.28,0,0,0,7.49-4.61C376,325.75,374.87,323.75,371.19,323.75Z" style="fill:#6b6b6b"/><path d="M391.06,319.14h21.66l-1.88,4.61H394.59L391.66,331h11.21L401,335.57H389.78l-2.86,7h16.63l-1.87,4.61H379.63Z" style="fill:#6b6b6b"/><path d="M443.72,318.34c8.51,0,12,6.21,8.46,14.83S440.15,348,431.64,348s-12-6.22-8.47-14.83S435.21,318.34,443.72,318.34Zm-2,4.81c-5,0-10.53,4-13,10s-.21,10,4.81,10,10.53-4,13-10S446.79,323.15,441.76,323.15Z" style="fill:#6b6b6b"/><path d="M475.09,338.38l7.83-19.24h5.42l-11.43,28.05h-5.8L465.6,328h-.19l-7.84,19.23h-5.41l11.42-28.05h5.81l5.5,19.24Z" style="fill:#6b6b6b"/><path d="M522.69,326.35l-14.1,20.84h-7.16l3.89-28.05h5.8l-3,21h.2l14.1-21H529l-3,21h.19l14.18-21h5.8l-19,28.05H520l2.88-20.84Z" style="fill:#6b6b6b"/><path d="M575.68,319.14l-11.43,28.05h-5.41l4.73-11.62H549.65l-4.74,11.62H539.5l11.43-28.05h5.41L551.53,331h13.92l4.82-11.82Z" style="fill:#6b6b6b"/><path d="M582.92,319.14h21.66l-1.88,4.61H586.46L583.52,331h11.21l-1.87,4.61H581.64l-2.86,7h16.64l-1.88,4.61h-22Z" style="fill:#6b6b6b"/><path d="M610.11,319.14h21.66l-1.87,4.61H613.65L610.71,331h11.22l-1.88,4.61H608.83l-2.85,7h16.63l-1.88,4.61H598.68Z" style="fill:#6b6b6b"/><path d="M637.3,319.14h5.42l-9.55,23.44h15.28l-1.88,4.61h-20.7Z" style="fill:#6b6b6b"/><path d="M681.31,321.74l-3.68,3.81a8.54,8.54,0,0,0-6.18-2.4c-3.67,0-6.15,1.8-6.72,3.2-2.29,5.61,14.14,2.81,10.14,12.63-2,4.81-7.74,9-15.47,9-6.27,0-8.7-3.81-8.7-3.81l3.87-3.81a7.55,7.55,0,0,0,6.32,3c4.44,0,7.47-2.21,8.37-4.41,2-5-14.3-2.41-10.14-12.63,1.63-4,7.14-8,13.9-8C678.83,318.34,681.31,321.74,681.31,321.74Z" style="fill:#6b6b6b"/><path d="M69.66,301.84h-20L38.08,281.41H27l-8.27,20.43H1L24.9,242.57H72q12,0,14.61,4.4t-.72,12.67L84,264.34A27.49,27.49,0,0,1,74.56,277a23.1,23.1,0,0,1-13.79,4.4H58.11ZM53.51,267.92q7.16,0,10-2.25A12.91,12.91,0,0,0,67.1,262a5.63,5.63,0,0,0-.61-3.68q-1-2.25-8.18-2.25H37.26l-4.8,11.86Z" style="fill:#0674ed"/><path d="M151.51,284.78a27.1,27.1,0,0,1-9.5,12.67q-6,4.4-18.09,4.39H97.76q-10.42,0-14.1-3.93t-.11-13.13l10.22-25.14q3.48-8.58,10.12-12.72t17.78-4.35h26.16q12.06,0,14.61,4.4t-.71,12.67ZM136,279.06l5.51-13.6q1.84-4.9.82-7.15c-.68-1.5-3.41-2.25-8.17-2.25h-10c-4.29,0-7.51.81-9.66,2.4a15.83,15.83,0,0,0-5,7L104,279c-1.29,3.07-1.52,5.4-.66,7s3.42,2.4,7.71,2.4h10q7.05,0,9.91-2.24A17.69,17.69,0,0,0,136,279.06Z" style="fill:#0674ed"/><path d="M183.29,282.43l-12.78,19.41h-18q13.59-20.43,20.64-31t7.77-11.34a61.06,61.06,0,0,1,4.85-5.32,74.19,74.19,0,0,1,6.69-5.72q7.58-5.92,12.88-5.93h10.12q5.93,0,8.38,5.93a21.08,21.08,0,0,1,2,11q.1,1.43-5.42,42.3h-18l2.76-19.41Zm24.52-13.49.31-3.48q.4-4.69-.72-6.74t-2.55-2q-1.42,0-4.34,2a27,27,0,0,0-6.18,6.74l-2.46,3.48h15.94Z" style="fill:#0674ed"/><path d="M228.45,301.84l23.92-59.27h46.8a34.43,34.43,0,0,1,9.55,1.08,9.73,9.73,0,0,1,5.21,3.16,7.69,7.69,0,0,1,1.38,5.32,24.49,24.49,0,0,1-1.94,7.51l-10.22,25.14a34.92,34.92,0,0,1-4.09,7.51,20.33,20.33,0,0,1-5.67,5.31,25.78,25.78,0,0,1-7.76,3.17,44.32,44.32,0,0,1-10.37,1.07Zm36.28-45.78-13.08,32.3H272.8q6.45,0,9.71-2.41a15.51,15.51,0,0,0,5.11-7L293,265.47q1.83-4.61.56-7c-.85-1.6-3.42-2.41-7.72-2.41Z" style="fill:#0674ed"/><path d="M358.44,278.75H331.36l-9.3,23.09H304.17l17.07-42.2a34.92,34.92,0,0,1,4.09-7.51,20.19,20.19,0,0,1,5.67-5.31,25.78,25.78,0,0,1,7.76-3.17,44.35,44.35,0,0,1,10.38-1.07H375a35.74,35.74,0,0,1,9.5,1,9.85,9.85,0,0,1,5.22,3.11,7.58,7.58,0,0,1,1.43,5.27,23.94,23.94,0,0,1-1.94,7.35L372,301.84H354.25l9.3-23.09ZM360,265.26h9.09a14.43,14.43,0,0,0,1-3.83,4.51,4.51,0,0,0-.61-2.91,4.65,4.65,0,0,0-2.65-1.84,16.89,16.89,0,0,0-5.06-.62H351.59q-6.43,0-9.71,2.46a15.32,15.32,0,0,0-5,6.74Z" style="fill:#e89400"/><path d="M455.62,290.91a27.72,27.72,0,0,1-7.46,7.46,19.58,19.58,0,0,1-11.45,3.47H380.1l5.42-13.48h46.9c1.43,0,2.21-.48,2.35-1.44s0-1.6-.41-1.73l-34.13-14.82q-6.44-2.55-3.17-10.42c.48-1.23.9-2.25,1.28-3.07a12.19,12.19,0,0,1,1.07-1.94A19.1,19.1,0,0,0,401.1,253c.58-.75,1.14-1.57,1.69-2.45q1.83-2.87,8.27-5.42a37.19,37.19,0,0,1,14-2.55h50.07l-5.62,13.89H419.44a2.82,2.82,0,0,0-2.55,1.84q-.31,1.23,0,1.23l37.7,16.76q3.69,1.63,3.28,6.34A20,20,0,0,1,455.62,290.91Z" style="fill:#e89400"/><path d="M534.71,290.91a27.57,27.57,0,0,1-7.46,7.46,19.56,19.56,0,0,1-11.45,3.47H459.19l5.42-13.48h46.9c1.43,0,2.22-.48,2.35-1.44s0-1.6-.41-1.73l-34.13-14.82q-6.44-2.55-3.16-10.42c.47-1.23.9-2.25,1.27-3.07a12.13,12.13,0,0,1,1.08-1.94,20.43,20.43,0,0,0,1.68-1.94c.58-.75,1.14-1.57,1.69-2.45q1.83-2.87,8.27-5.42a37.23,37.23,0,0,1,14-2.55h50.08l-5.62,13.89H498.53a2.82,2.82,0,0,0-2.55,1.84q-.32,1.23,0,1.23l37.71,16.76q3.67,1.63,3.27,6.34A20,20,0,0,1,534.71,290.91Z" style="fill:#e89400"/><path d="M556.07,301.84H538.28l23.92-59.27H580Z" style="fill:#e89400"/><path d="M639.55,290.91a27.43,27.43,0,0,1-7.46,7.46,19.55,19.55,0,0,1-11.44,3.47H564l5.41-13.48h46.91c1.43,0,2.21-.48,2.35-1.44s0-1.6-.41-1.73l-34.13-14.82Q577.74,267.82,581,260c.48-1.23.9-2.25,1.28-3.07a12.19,12.19,0,0,1,1.07-1.94A20.43,20.43,0,0,0,585,253c.57-.75,1.14-1.57,1.68-2.45q1.85-2.87,8.28-5.42a37.16,37.16,0,0,1,14-2.55h50.07l-5.62,13.89H603.38a2.84,2.84,0,0,0-2.56,1.84q-.3,1.23,0,1.23l37.71,16.76q3.68,1.63,3.27,6.34A19.67,19.67,0,0,1,639.55,290.91Z" style="fill:#e89400"/><path d="M661.62,256.06,667,242.57h67.85l-5.41,13.49H703.93l-18.5,45.78H667.65l18.5-45.78Z" style="fill:#e89400"/><path d="M693.22,150.39a65,65,0,0,0-64.43-56.92h0a64.93,64.93,0,0,1-46.86-20L542.14,32a64.9,64.9,0,0,0-46.86-20H168.83a33,33,0,0,0-32.25,26L112.33,150.39h-2a9.89,9.89,0,0,0-9.89,9.89V183.9A14.07,14.07,0,0,0,114.46,198h42.37a67.41,67.41,0,0,1,121.86-50H536.43A67.41,67.41,0,0,1,659.3,186.33a69.48,69.48,0,0,1-1,11.63h30.76a14.06,14.06,0,0,0,14-14.06V160.28A9.88,9.88,0,0,0,693.22,150.39Z" style="fill:#0674ed"/><path d="M591.89,133a53.32,53.32,0,0,0-46.14,26.59H269.36a53.32,53.32,0,0,0-93.88,3h61.45l13.7,23.71-13.7,23.73H175.48a53.31,53.31,0,0,0,93.88,3H545.75a53.31,53.31,0,1,0,46.14-80Zm13.69,77H578.19l-13.71-23.73,13.71-23.71h27.39l13.71,23.71Z" style="fill:#f7941d"/><path d="M38.46,34.63A58.7,58.7,0,0,0,78.13,67.72l41.22,10,4.47-20.78C78,45,38.46,34.63,38.46,34.63Z" style="fill:#e89400"/><path d="M130.81,27.61C75.16,13.26,23.64,0,23.64,0l0,0A58.73,58.73,0,0,0,63.3,33.09l62.38,15.25,2.94-13.55A42.32,42.32,0,0,1,130.81,27.61Z" style="fill:#e89400"/><path d="M53.27,69.29a58.71,58.71,0,0,0,39.67,33.07L104.42,105c4.77-.55,7.53-.85,7.53-.85s.57-.4,1.93-1.17l3.64-16.81C72.85,74.58,53.27,69.29,53.27,69.29Z" style="fill:#e89400"/><path d="M310.64,107.61V98.85h37.62a7.58,7.58,0,0,0,5.42-1.8,6.25,6.25,0,0,0,1.9-4.76,6.08,6.08,0,0,0-1.9-4.87,8.12,8.12,0,0,0-5.42-1.62H325.2a18.21,18.21,0,0,1-6.38-1.07,13.68,13.68,0,0,1-4.83-3,13,13,0,0,1-3-4.52,15.1,15.1,0,0,1-1.07-5.73,15.38,15.38,0,0,1,1-5.62,12.13,12.13,0,0,1,3-4.46,14,14,0,0,1,4.87-2.93,19.11,19.11,0,0,1,6.62-1.07h36V66.2h-36a6.42,6.42,0,0,0-4.69,1.62A6,6,0,0,0,319,72.34a5.86,5.86,0,0,0,1.69,4.49,6.44,6.44,0,0,0,4.59,1.59h23q7.67,0,11.63,3.58t4,10.91a17.13,17.13,0,0,1-1,5.87,12.62,12.62,0,0,1-2.9,4.66,13.34,13.34,0,0,1-4.86,3.07,19.42,19.42,0,0,1-6.87,1.1Z" style="fill:#fff"/><path d="M368,57.43h10.7l22.78,38.66,22.71-38.66h10.08l-28.93,48a6.42,6.42,0,0,1-1.79,2.07,4,4,0,0,1-2.42.76,4.06,4.06,0,0,1-2.48-.76,6.57,6.57,0,0,1-1.8-2.07Z" style="fill:#fff"/><path d="M439.65,107.61V57.43h8.77V98.85h33.75v8.76Z" style="fill:#fff"/><polygon points="221.48 318.71 58.01 318.71 0 318.71 0 322.85 58.01 322.85 218.48 322.85 276.5 322.85 279.5 318.71 221.48 318.71" style="fill:#6b6b6b"/><rect y="331.36" width="10.13" height="4.14" style="fill:#6b6b6b"/><rect x="19.34" y="331.36" width="10.13" height="4.14" style="fill:#6b6b6b"/><rect x="38.67" y="331.36" width="10.13" height="4.14" style="fill:#6b6b6b"/><rect x="58.01" y="331.36" width="10.13" height="4.14" style="fill:#6b6b6b"/><rect x="77.35" y="331.36" width="10.13" height="4.14" style="fill:#6b6b6b"/><rect x="96.69" y="331.36" width="10.13" height="4.14" style="fill:#6b6b6b"/><rect x="116.02" y="331.36" width="10.14" height="4.14" style="fill:#6b6b6b"/><rect x="135.36" y="331.36" width="10.14" height="4.14" style="fill:#6b6b6b"/><rect x="154.7" y="331.36" width="10.14" height="4.14" style="fill:#6b6b6b"/><rect x="174.04" y="331.36" width="10.13" height="4.14" style="fill:#6b6b6b"/><rect x="193.37" y="331.36" width="10.14" height="4.14" style="fill:#6b6b6b"/><rect x="212.59" y="331.36" width="10.14" height="4.14" style="fill:#6b6b6b"/><rect x="231.93" y="331.36" width="10.14" height="4.14" style="fill:#6b6b6b"/><rect x="251.26" y="331.36" width="10.14" height="4.14" style="fill:#6b6b6b"/><polygon points="63.27 344.1 0 344.1 0 348.24 63.27 348.24 200.13 348.24 263.4 348.24 266.4 344.1 203.13 344.1 63.27 344.1" style="fill:#6b6b6b"/></g></g></svg>