<svg xmlns="http://www.w3.org/2000/svg" viewBox="0 0 936.65 237.97"><g id="Layer_2" data-name="Layer 2"><g id="Layer_1-2" data-name="Layer 1"><path d="M214.84,107a92.81,92.81,0,0,1,.75,12A96.61,96.61,0,1,1,198,63.44l22.17-7A118.55,118.55,0,1,0,236.77,102l-21.93,5Z" style="fill:#0674ed;fill-rule:evenodd"/><path d="M120.6,156.57A203,203,0,0,1,245.19,91.78l9.73,17A185.27,185.27,0,0,0,121,184.39L19,68.32,32.58,56.11l88,100.46Z" style="fill:#0674ed;fill-rule:evenodd"/><path d="M109.15,134.26A226.52,226.52,0,0,1,232.52,69.73l9.29,16a209.21,209.21,0,0,0-121,61.27l-11.66-12.79Z" style="fill:#e89400;fill-rule:evenodd"/><path d="M93.27,115.87A250.85,250.85,0,0,1,220.33,47.38l9,17.06a232.34,232.34,0,0,0-123.93,65.4l-12.16-14Z" style="fill:#0674ed;fill-rule:evenodd"/><path d="M399,214.81H368L327.48,98.86h32.26l23.1,81.51,20.49-71.05q3.48-10.45,13.95-10.46h22.66Z" style="fill:#0674ed"/><path d="M531.39,179.07h21.8q-4.8,18.3-18.32,27.89-13.5,10-34,10-24.84,0-38.81-16.13-13.93-15.69-13.94-44.9,0-27.89,13.51-43.59,13.94-16.11,38.8-16.12,26.15,0,40.54,15.69,13.93,16.13,13.94,44.89v4.8a7.44,7.44,0,0,1-.44,3.05h-75.4q.42,13.53,6.53,20,5.67,7,17,7a24.69,24.69,0,0,0,12.63-3.05,6.06,6.06,0,0,0,2.4-1.53c.72-.72,1.53-1.52,2.4-2.4.29-.87,1.37-2,3.27-3.48S527.9,179.07,531.39,179.07Zm-52.3-34h44.46c-.59-7.86-2.61-13.67-6.11-17.44q-5.66-6.1-16.12-6.11-9.6,0-15.7,6.11T479.09,145.07Z" style="fill:#0674ed"/><path d="M565.31,214.81V158.58q0-17,5-28.55a47.29,47.29,0,0,1,13.73-18.53,54,54,0,0,1,19.4-9.59,86.22,86.22,0,0,1,22.88-3h4.36v31h-10q-12.64,0-18.73,6.1t-6.11,19.18v59.72Z" style="fill:#0674ed"/><path d="M690.76,214.81a226.86,226.86,0,0,1-31.17-.44Q642.8,213.07,642.81,193V64.86H658.5a13.82,13.82,0,0,1,10,4.36,14.25,14.25,0,0,1,4.36,10.46V99.3h17.87v6.1a14.09,14.09,0,0,1-4.36,10.68,14.66,14.66,0,0,1-10.46,4.15h-3.05v64.5q0,7.43,8.72,7.42h9.15v22.66Z" style="fill:#0674ed"/><path d="M779.6,179.07h21.79q-4.82,18.3-18.3,27.89-13.53,10-34,10-24.84,0-38.79-16.13-14-15.69-14-44.9,0-27.89,13.52-43.59,13.95-16.11,38.8-16.12,26.16,0,40.53,15.69,14,16.13,14,44.89v4.8a7.27,7.27,0,0,1-.44,3.05h-75.4q.42,13.53,6.53,20,5.67,7,17,7a24.69,24.69,0,0,0,12.63-3.05,6,6,0,0,0,2.4-1.53l2.4-2.4c.28-.87,1.37-2,3.27-3.48S776.11,179.07,779.6,179.07Zm-52.31-34h44.46q-.88-11.79-6.1-17.44c-3.79-4.07-9.15-6.11-16.13-6.11-6.4,0-11.62,2-15.7,6.11S727.57,137.51,727.29,145.07Z" style="fill:#0674ed"/><path d="M920.63,214.81H885.76l-20.49-36.62-21.35,36.62H808.6l37.94-59.72-44.2-88.38,62.06,67,72.25-79.55L882.29,155.53Z" style="fill:#0674ed"/><text transform="translate(323.11 70.49)" style="isolation:isolate;font-size:65.15070343017578px;fill:#f7941d;font-family:GoodTimesRg-Regular, Good Times">SVSK</text><path d="M878.78,96.25A14.58,14.58,0,1,1,864.2,81.67,14.57,14.57,0,0,1,878.78,96.25Z" style="fill:#e89400"/><rect x="280.78" y="23.07" width="4.57" height="191.83" style="fill:#bcbcbc"/></g></g></svg>