<?xml version="1.0" encoding="utf-8"?>
<!-- Generator: Adobe Illustrator 24.1.0, SVG Export Plug-In . SVG Version: 6.00 Build 0)  -->
<svg version="1.1" id="Layer_1" xmlns="http://www.w3.org/2000/svg" xmlns:xlink="http://www.w3.org/1999/xlink" x="0px" y="0px"
	 viewBox="0 0 959.5 189.4" style="enable-background:new 0 0 959.5 189.4;" xml:space="preserve">
<style type="text/css">
	.st0{fill:#F7941D;}
	.st1{fill:#FFFFFF;}
	.st2{fill:#BCBCBC;}
	.st3{fill:#6B6B6B;}
</style>
<g id="Layer_2_1_">
	<g id="Layer_1-2">
		<path class="st0" d="M236,54.3V48h27.3c1.4,0.1,2.8-0.4,3.9-1.3c0.9-0.9,1.4-2.2,1.4-3.5c0.1-1.3-0.4-2.6-1.4-3.5
			c-1.1-0.8-2.5-1.3-3.9-1.2h-16.7c-1.6,0-3.1-0.2-4.6-0.8c-1.3-0.5-2.5-1.2-3.5-2.2c-1-0.9-1.7-2-2.2-3.3s-0.8-2.7-0.8-4.1
			s0.2-2.8,0.7-4.1c0.5-1.2,1.2-2.3,2.1-3.2c1-0.9,2.2-1.7,3.5-2.1c1.5-0.5,3.2-0.8,4.8-0.8h26.1v6.4h-26.1
			c-1.2-0.1-2.5,0.3-3.4,1.2c-0.8,0.9-1.3,2.1-1.2,3.3c-0.1,1.2,0.4,2.4,1.2,3.2c0.9,0.8,2.1,1.2,3.3,1.2h16.6
			c3.7,0,6.5,0.9,8.4,2.6s2.9,4.4,2.9,7.9c0,1.4-0.2,2.9-0.7,4.2c-0.4,1.3-1.2,2.4-2.1,3.4c-1,1-2.2,1.7-3.5,2.2
			c-1.6,0.6-3.3,0.8-5,0.8L236,54.3z"/>
		<path class="st0" d="M277.5,18h7.8l16.5,28l16.5-28h7.3l-20.9,34.8c-0.3,0.6-0.8,1.1-1.3,1.5s-1.1,0.6-1.8,0.5
			c-0.6,0-1.3-0.2-1.8-0.5c-0.5-0.4-1-0.9-1.3-1.5L277.5,18z"/>
		<path class="st0" d="M329.5,54.3V18h6.4v30h24.5v6.3H329.5z"/>
		<path class="st0" d="M85.6,0C48.4,0,15.4,24.1,4.1,59.5h54.2v69H76V41.8H34.2c24.1-28.4,66.7-31.8,95.1-7.7
			c17.7,15,26.4,38.1,23.1,61.1h18.2C176,48.4,142.5,6,95.6,0.6C92.3,0.2,88.9,0,85.6,0z"/>
		<path class="st1" d="M148.2,110.8h-36.4v-69H94.2v86.7h43.5c-23.7,28.8-66.3,32.9-95,9.1c-18.4-15.2-27.4-39-23.7-62.5H0.7
			C0.2,78.6,0,82.1,0,85.6c0,47.3,38.4,85.6,85.6,85.6c37.5,0,70.7-24.5,81.7-60.3L148.2,110.8L148.2,110.8z"/>
		<path class="st1" d="M296.3,86.2h-23.6v66.7h-13.8V86.2h-23.7V72.4h61.1V86.2z"/>
		<path class="st1" d="M437.6,142.1c-3.8,3.8-8.4,6.9-13.3,9c-10.4,4.4-22.2,4.4-32.6,0c-10.1-4.2-18.1-12.2-22.3-22.3
			c-4.4-10.4-4.4-22.1,0-32.6c4.3-10.1,12.3-18.1,22.3-22.3c10.4-4.4,22.2-4.4,32.6,0c5,2.1,9.5,5.2,13.3,9l-9.8,9.8
			c-2.6-2.6-5.7-4.7-9.1-6.2c-3.4-1.4-7.1-2.1-10.8-2.1c-3.7,0-7.3,0.7-10.7,2.1c-3.4,1.4-6.5,3.5-9.1,6.2c-2.6,2.6-4.7,5.7-6.1,9.1
			s-2.1,7-2.1,10.7s0.7,7.3,2.1,10.8c1.4,3.4,3.5,6.5,6.1,9.1c2.6,2.6,5.7,4.7,9.1,6.1c3.4,1.4,7,2.1,10.7,2.1s7.4-0.7,10.8-2.1
			c3.4-1.4,6.5-3.5,9.1-6.1L437.6,142.1z"/>
		<path class="st1" d="M507.7,72.4v80.5h-13.8v-33.4h-33.5v33.4h-13.8V72.4h13.8v33.3h33.5V72.4H507.7z"/>
		<path class="st1" d="M581.2,72.2v80.5h-15l-32.3-55.1v55.1h-13.8V72.2H535l32.3,55.1v-55L581.2,72.2L581.2,72.2z"/>
		<path class="st1" d="M632,70.7c5.6,0,11.1,1.1,16.3,3.3c10.1,4.2,18.1,12.2,22.3,22.3c4.4,10.4,4.4,22.1,0,32.5
			c-4.2,10.1-12.3,18.1-22.3,22.3c-10.4,4.4-22.1,4.4-32.5,0c-10.1-4.2-18.1-12.3-22.3-22.3c-4.4-10.4-4.4-22.1,0-32.6
			c4.2-10.1,12.3-18.1,22.3-22.3C620.9,71.7,626.4,70.6,632,70.7z M632,84.5c-3.7,0-7.3,0.7-10.7,2.1s-6.5,3.5-9.1,6.2
			c-2.6,2.6-4.7,5.7-6.2,9.1c-1.4,3.4-2.1,7-2.1,10.7s0.7,7.3,2.1,10.8c1.4,3.4,3.5,6.5,6.2,9.1c2.6,2.6,5.7,4.7,9.1,6.1
			c3.4,1.4,7,2.1,10.7,2.1s7.3-0.7,10.8-2.1c6.9-2.8,12.4-8.3,15.2-15.2c1.4-3.4,2.1-7.1,2.1-10.8c0-3.7-0.7-7.3-2.1-10.7
			c-1.4-3.4-3.5-6.5-6.1-9.1s-5.7-4.7-9.1-6.2C639.4,85.2,635.7,84.4,632,84.5z"/>
		<path class="st0" d="M728.3,139.1v13.8h-45.4V72.5h13.8v66.6H728.3z"/>
		<path class="st0" d="M820.5,152.9h-15.2l-6.2-13.8l-6.2-13.8l-16.3-36.1l-28.8,63.7h-15.2L769,72.4h15.2L820.5,152.9z"/>
		<path class="st0" d="M883.7,109.9c3.1,2.1,5.6,5,7.4,8.3c1.8,3.4,2.8,7.2,2.8,11v0.2c0,3.1-0.6,6.3-1.8,9.1s-2.9,5.3-5.1,7.5
			c-2.2,2.1-4.7,3.8-7.5,5c-2.9,1.2-6,1.9-9.1,1.9h-22.9l5.6-13.8h17.4c5.3,0,9.6-4.2,9.7-9.5v-0.1v-0.2c0-5.3-4.3-9.6-9.6-9.7h-0.1
			h-28.2V153h-13.8V72.4h36.3c6.2,0,12.2,2.5,16.6,6.9c2.1,2.2,3.8,4.7,5,7.5c1.2,2.9,1.9,6,1.8,9.1v0.2c0,2.5-0.4,5-1.2,7.4
			C886.2,105.8,885.1,107.9,883.7,109.9z M874.3,95.9c0-5.3-4.3-9.6-9.6-9.7c0,0,0,0-0.1,0h-22.5v19.6h22.5c5.3,0,9.6-4.3,9.7-9.6
			v-0.1L874.3,95.9L874.3,95.9z"/>
		<path class="st0" d="M959.5,129.9c0.1,3.5-0.6,6.9-1.8,10.2c-1.2,2.9-2.9,5.6-5.2,7.7c-2.4,2.2-5.2,3.8-8.2,4.9
			c-3.5,1.2-7.1,1.8-10.8,1.7c-5.8,0.1-11.6-0.9-17-3c-4.4-1.7-8.6-4.1-12.3-7l9.5-9.6c2.5,2.3,5.4,4.1,8.5,5.3
			c1.7,0.7,3.6,1.2,5.4,1.5c1.4,0.2,2.7,0.3,4.1,0.3c1.9,0,3.7-0.2,5.5-0.8c1.5-0.4,3-1.1,4.3-2c2.5-1.7,4-4.6,3.9-7.6
			c0-1.9-0.7-3.8-2.1-5.2c-1.1-1.3-2.6-2.3-4.1-3c-1.4-0.8-2.8-1.4-4.4-1.8c-1.5-0.4-2.9-0.9-4.2-1.3c-0.3-0.1-0.7-0.2-1-0.3
			c-0.3,0-0.6-0.1-0.8-0.3c-0.2,0-0.5-0.1-0.7-0.2c-1.6-0.5-3.9-1.3-7-2.4c-3.2-1.2-6.2-2.8-9-4.7c-7-4.7-10.5-10.4-10.5-17.3
			c-0.1-4,0.7-7.9,2.3-11.5c1.5-3,3.6-5.5,6.2-7.6c2.5-1.9,5.4-3.4,8.4-4.2c3-0.8,6.1-1.2,9.2-1.3c4.7-0.1,9.4,0.5,13.9,1.9
			c3.1,1,6.1,2.3,9,3.9c1,0.6,2,1.3,2.9,2c0.8,0.7,1.5,1.2,2.1,1.8l-9.8,9.9c-1.8-1.9-4-3.5-6.3-4.7c-3.2-1.5-6.6-2.3-10.1-2.3
			c-1.6,0-3.1,0.2-4.6,0.6c-1.4,0.3-2.7,0.8-4,1.5c-3.4,2.1-5.1,4.8-5.1,8.2c0,2,0.7,3.9,2.1,5.3c1.2,1.3,2.6,2.3,4.2,3.1
			c1.5,0.8,3,1.4,4.6,1.8l4.5,1.3l1.4,0.3c0.4,0.2,1.1,0.4,2.2,0.7c1.3,0.4,2.6,0.9,3.8,1.4c1.5,0.6,3,1.4,4.8,2.2
			c1.8,0.9,3.5,1.9,5.1,3C955.8,117.4,959.5,123.2,959.5,129.9z"/>
		<rect x="303" y="73.9" class="st0" width="56" height="13.9"/>
		<rect x="303" y="105.4" class="st0" width="56" height="13.9"/>
		<rect x="303" y="136" class="st0" width="56" height="13.9"/>
		<polygon class="st0" points="761.6,122.3 791.1,122.3 755.5,135.9 		"/>
		<rect x="201.8" y="17.8" class="st2" width="3.2" height="135.1"/>
		<path class="st3" d="M385.6,168.1l-1.9,3c-1.6-0.9-3.4-1.4-5.2-1.4c-4.8,0-7.9,3.2-7.9,7.9s3.2,7.9,7.9,7.9c1.3,0,2.6-0.3,3.8-0.8
			v-5.2h-4.6v-3.6h9v10.7c-2.5,1.8-5.5,2.7-8.5,2.8c-7.1,0-12-4.9-12-11.7s4.9-11.7,12-11.7C380.8,165.8,383.4,166.6,385.6,168.1z"
			/>
		<path class="st3" d="M414.4,188.7h-4.8l-1.7-4.4H397l-1.7,4.4h-4.8l9.2-22.2h5.5L414.4,188.7z M398.5,180.5h7.8l-3.8-9.2h-0.2
			L398.5,180.5z"/>
		<path class="st3" d="M434.5,166.5v3.6h-7.6v18.6h-4.4v-18.6h-7.6v-3.6H434.5z"/>
		<path class="st3" d="M439.2,166.5H457v3.6h-13.3v5.7h9.2v3.6h-9.2v5.6h13.6v3.6h-18L439.2,166.5z"/>
		<path class="st3" d="M476.9,172.2l-4.6,16.5h-5.9l-6.2-22.2h4.7l4.6,16.6h0.2l4.5-16.6h5.3l4.5,16.6h0.2l4.6-16.6h4.8l-6.2,22.2
			h-5.9L476.9,172.2L476.9,172.2z"/>
		<path class="st3" d="M519.4,188.7h-4.7l-1.7-4.4h-11l-1.7,4.4h-4.8l9.2-22.2h5.5L519.4,188.7z M503.6,180.5h7.8l-3.8-9.2h-0.2
			L503.6,180.5z"/>
		<path class="st3" d="M537.1,166.5h4.7l-9,15.2v7h-4.4v-7l-9-15.2h4.8l6.3,10.8h0.3L537.1,166.5z"/>
		<path class="st3" d="M574.4,166.5v3.6h-7.6v18.6h-4.4v-18.6h-7.6v-3.6H574.4z"/>
		<path class="st3" d="M589,165.9c7,0,11.9,4.9,11.9,11.7s-4.9,11.7-11.9,11.7s-11.9-4.9-11.9-11.7S582.1,165.9,589,165.9z
			 M589,169.7c-4.1,0-7.3,3.2-7.3,7.9s3.2,7.9,7.3,7.9s7.3-3.2,7.3-7.9S593.2,169.7,589,169.7L589,169.7z"/>
		<path class="st3" d="M633.1,168.6l-1.7,3c-1.7-1.2-3.8-1.9-5.8-1.9c-3,0-4.4,1.4-4.4,2.5c0,4.4,12.5,2.2,12.5,10
			c0,3.8-3.3,7.1-9.7,7.1c-3.1,0-6-1.1-8.4-3l1.9-3c1.7,1.5,3.9,2.3,6.2,2.4c3.6,0,5.4-1.8,5.4-3.5c0-4-12.5-1.9-12.5-10
			c0-3.2,3.2-6.3,8.7-6.3C628.1,165.9,630.9,166.9,633.1,168.6z"/>
		<path class="st3" d="M649.9,185.6l-5.5-11.9h-0.2l-1.7,15.1h-4.6l2.7-22.2h4.9l6.3,13.8h0.2l6.3-13.8h4.9l2.7,22.2h-4.6l-1.7-15.1
			h-0.2l-5.5,11.9H649.9z"/>
		<path class="st3" d="M693.4,188.7h-4.7l-1.7-4.4h-11l-1.7,4.4h-4.8l9.2-22.2h5.5L693.4,188.7z M677.6,180.5h7.8l-3.8-9.2h-0.2
			L677.6,180.5z"/>
		<path class="st3" d="M708,166.5c6,0,9.2,3.2,9.2,7.3c0,2.7-1.6,5.2-4.1,6.3v0.2l5.8,8.4h-5.2l-5.2-7.6h-6.2v7.6h-4.4v-22.2H708z
			 M708,170.2h-5.7v7.3h5.7c3,0,4.6-1.9,4.6-3.6C712.5,171.8,711,170.2,708,170.2z"/>
		<path class="st3" d="M741.1,166.5v3.6h-7.6v18.6h-4.4v-18.6h-7.6v-3.6H741.1z"/>
		<path class="st3" d="M772.6,168.6l-1.7,3c-1.7-1.2-3.8-1.9-5.8-1.9c-3,0-4.4,1.4-4.4,2.5c0,4.4,12.5,2.2,12.5,10
			c0,3.8-3.3,7.1-9.7,7.1c-3.1,0-6-1.1-8.4-3l1.9-3c1.7,1.5,3.9,2.3,6.2,2.4c3.6,0,5.4-1.8,5.4-3.5c0-4-12.5-1.9-12.5-10
			c0-3.2,3.2-6.3,8.7-6.3C767.5,165.9,770.3,166.9,772.6,168.6z"/>
		<path class="st3" d="M788.8,165.9c7,0,11.9,4.9,11.9,11.7s-4.9,11.7-11.9,11.7s-11.8-4.9-11.8-11.7S781.9,165.9,788.8,165.9z
			 M788.8,169.7c-4.1,0-7.3,3.2-7.3,7.9s3.2,7.9,7.3,7.9s7.3-3.2,7.3-7.9S792.9,169.7,788.8,169.7L788.8,169.7z"/>
		<path class="st3" d="M806.1,166.5h4.4v18.6H823v3.6h-16.9V166.5z"/>
		<path class="st3" d="M827.7,179.9v-13.3h4.4v13.3c0,3.1,2.6,5.7,5.7,5.7s5.7-2.6,5.7-5.7v-13.3h4.4v13.3c0,5.6-4,9.5-10.1,9.5
			S827.7,185.4,827.7,179.9z"/>
		<path class="st3" d="M872.1,166.5v3.6h-7.6v18.6h-4.4v-18.6h-7.6v-3.6H872.1z"/>
		<path class="st3" d="M881.3,188.7h-4.4v-22.2h4.4V188.7z"/>
		<path class="st3" d="M898.6,165.9c7,0,11.9,4.9,11.9,11.7s-4.9,11.7-11.9,11.7s-11.9-4.9-11.9-11.7S891.6,165.9,898.6,165.9z
			 M898.6,169.7c-4.1,0-7.3,3.2-7.3,7.9s3.2,7.9,7.3,7.9s7.3-3.2,7.3-7.9S902.7,169.7,898.6,169.7L898.6,169.7z"/>
		<path class="st3" d="M931.7,181.8v-15.2h4.4v22.2h-4.7l-10.9-15.2h-0.2v15.2h-4.4v-22.2h4.8l10.9,15.2H931.7z"/>
		<path class="st3" d="M958.9,168.6l-1.7,3c-1.7-1.2-3.8-1.9-5.8-1.9c-3,0-4.4,1.4-4.4,2.5c0,4.4,12.5,2.2,12.5,10
			c0,3.8-3.3,7.1-9.7,7.1c-3.1,0-6-1.1-8.4-3l1.9-3c1.7,1.5,3.9,2.3,6.2,2.4c3.6,0,5.4-1.8,5.4-3.5c0-4-12.5-1.9-12.5-10
			c0-3.2,3.2-6.3,8.7-6.3C953.8,165.9,956.6,166.9,958.9,168.6z"/>
	</g>
</g>
</svg>
