<svg xmlns="http://www.w3.org/2000/svg" viewBox="0 0 941.8 274.3"><g id="Layer_2" data-name="Layer 2"><g id="Layer_1-2" data-name="Layer 1"><rect x="298.3" y="28.4" width="4.7" height="198.8" style="fill:#bcbcbc"/><path d="M170.1,122.6s1.5,2.2,2.1,2.2c0,0,3.4-.9,3.5-2.1C175.6,122.7,172.6,123.7,170.1,122.6Z" style="fill:none"/><path d="M343.7,86.6V76.7h42.5a8.78,8.78,0,0,0,6.1-2,7.16,7.16,0,0,0,2.1-5.4,6.94,6.94,0,0,0-2.1-5.5,9.25,9.25,0,0,0-6.1-1.8h-26a20.52,20.52,0,0,1-7.2-1.2,14.64,14.64,0,0,1-5.5-3.4,13.85,13.85,0,0,1-3.4-5.1,17.1,17.1,0,0,1-1.2-6.5,19.11,19.11,0,0,1,1.1-6.4,14.33,14.33,0,0,1,3.4-5,15.82,15.82,0,0,1,5.5-3.3,21.86,21.86,0,0,1,7.5-1.2h40.7v9.9H360.4a7.24,7.24,0,0,0-5.3,1.8,6.94,6.94,0,0,0-1.9,5.1,6.57,6.57,0,0,0,1.9,5.1,7.31,7.31,0,0,0,5.2,1.8h26c5.8,0,10.1,1.4,13.1,4.1s4.5,6.8,4.5,12.3a19.86,19.86,0,0,1-1.1,6.6,14,14,0,0,1-3.3,5.3,16.21,16.21,0,0,1-5.5,3.5,22.84,22.84,0,0,1-7.8,1.2Z" style="fill:#f7941d"/><path d="M408.4,30h12.1l25.7,43.6L471.8,30h11.4L450.5,84.2a6.53,6.53,0,0,1-2,2.3,4.39,4.39,0,0,1-2.7.9,4.47,4.47,0,0,1-2.8-.9,7.4,7.4,0,0,1-2-2.3Z" style="fill:#f7941d"/><path d="M489.3,86.6V29.9h9.9V76.7h38.1v9.9Z" style="fill:#f7941d"/><path d="M453.6,179.8c-1.2,14-6.4,25-15.8,32.9-9.6,7.7-22.2,11.6-37.8,11.6q-27.3,0-41.7-16.5-14.4-15.75-14.4-46.6,0-31.5,14.7-47.3c10-11,24.5-16.5,43.4-16.5,15.4,0,27.7,3.9,36.8,11.6q12.9,11.25,14.7,31.5H438.4c-5.6,0-9.6-2.5-11.9-7.4a34.06,34.06,0,0,0-6-8.1c-4.7-3.5-10.9-5.3-18.6-5.3q-16,0-24.9,10.5c-5.6,7-8.4,17.3-8.4,30.8,0,13.1,2.8,23.1,8.4,30.1,5.4,7.2,13.4,10.9,24.2,10.9,7.5,0,13.7-1.9,18.6-5.6,4.4-3.5,7.6-9.1,9.5-16.8h24.3Z" style="fill:#0674ed"/><path d="M521.1,217.6a42.77,42.77,0,0,1-15.6,4.7,135.19,135.19,0,0,1-14.5.9,37.14,37.14,0,0,1-22.1-6.8c-6.3-4.6-9.5-12.1-9.5-22.6,0-9.8,2.9-16.8,8.6-21s13-7,21.9-8.4a23.7,23.7,0,0,0,4.2-.5c1.6-.3,3.5-.6,5.6-.9,10.3-1.4,15.4-4.4,15.4-9.1,0-3.5-1.8-5.8-5.4-6.8a37.72,37.72,0,0,0-10-1.6,26.63,26.63,0,0,0-8.8,1.4,9.43,9.43,0,0,0-5.6,5.3H461.8a27.08,27.08,0,0,1,9.8-17.9q9.45-8.1,27-8.1c13.1,0,22.9,2.2,29.4,6.7,6.8,4.7,10.2,11.2,10.2,19.6v31.9q0,13.95-5.1,21.9A30,30,0,0,1,521.1,217.6Zm-5.6-43a67.57,67.57,0,0,1-13.7,4.6l-8.1,1.8c-4.2,1.2-7.2,2.7-9.1,4.6a14.61,14.61,0,0,0-2.5,7.7c0,3.5,1,6.3,3.2,8.4,2.1,1.9,5.1,2.8,9.1,2.8,6.5,0,11.7-1.9,15.4-5.6s5.6-8.9,5.6-15.4v-8.9Z" style="fill:#0674ed"/><path d="M544.4,221.5V176.3c0-9.1,1.3-16.7,4-22.9a39.22,39.22,0,0,1,11-14.9,42.25,42.25,0,0,1,15.6-7.7,71,71,0,0,1,18.4-2.5H597v24.9h-8.1c-6.8,0-11.8,1.6-15.1,4.9s-4.9,8.4-4.9,15.4v48Z" style="fill:#0674ed"/><path d="M709.6,179.8c-1.2,14-6.4,25-15.8,32.9-9.6,7.7-22.2,11.6-37.8,11.6q-27.3,0-41.7-16.5-14.4-15.75-14.4-46.6,0-31.5,14.7-47.3c10-11,24.5-16.5,43.4-16.5,15.4,0,27.7,3.9,36.8,11.6q12.9,11.25,14.7,31.5H694.4c-5.6,0-9.6-2.5-11.9-7.4a34.06,34.06,0,0,0-6-8.1c-4.7-3.5-10.9-5.3-18.6-5.3q-16,0-24.9,10.5c-5.6,7-8.4,17.3-8.4,30.8,0,13.1,2.8,23.1,8.4,30.1,5.4,7.2,13.4,10.9,24.2,10.9,7.5,0,13.7-1.9,18.6-5.6,4.4-3.5,7.6-9.1,9.5-16.8h24.3Z" style="fill:#f7941d"/><path d="M777,217.6a42.77,42.77,0,0,1-15.6,4.7,135.19,135.19,0,0,1-14.5.9,37.14,37.14,0,0,1-22.1-6.8c-6.3-4.6-9.5-12.1-9.5-22.6,0-9.8,2.9-16.8,8.6-21s13-7,21.9-8.4a23.7,23.7,0,0,0,4.2-.5c1.6-.3,3.5-.6,5.6-.9,10.3-1.4,15.4-4.4,15.4-9.1,0-3.5-1.8-5.8-5.4-6.8a37.72,37.72,0,0,0-10-1.6,26.63,26.63,0,0,0-8.8,1.4,9.43,9.43,0,0,0-5.6,5.3H717.7a27.08,27.08,0,0,1,9.8-17.9q9.45-8.1,27-8.1c13.1,0,22.9,2.2,29.4,6.7,6.8,4.7,10.2,11.2,10.2,19.6v31.9q0,13.95-5.1,21.9A30,30,0,0,1,777,217.6Zm-5.6-43a67.57,67.57,0,0,1-13.7,4.6l-8.1,1.8c-4.2,1.2-7.2,2.7-9.1,4.6a14.61,14.61,0,0,0-2.5,7.7c0,3.5,1,6.3,3.2,8.4,2.1,1.9,5.1,2.8,9.1,2.8,6.5,0,11.7-1.9,15.4-5.6s5.6-8.9,5.6-15.4v-8.9Z" style="fill:#f7941d"/><path d="M800.4,221.5V176.3c0-9.1,1.3-16.7,4-22.9a39.22,39.22,0,0,1,11-14.9,42.25,42.25,0,0,1,15.6-7.7,71,71,0,0,1,18.4-2.5H853v24.9h-8.1c-6.8,0-11.8,1.6-15.1,4.9s-4.9,8.4-4.9,15.4v48Z" style="fill:#f7941d"/><path d="M922.8,192.8h17.5c-2.6,9.8-7.5,17.3-14.7,22.4q-10.8,8.1-27.3,8.1c-13.3,0-23.7-4.3-31.2-13-7.5-8.4-11.2-20.4-11.2-36.1,0-14.9,3.6-26.6,10.9-35,7.5-8.6,17.9-13,31.2-13,14,0,24.9,4.2,32.6,12.6,7.5,8.6,11.2,20.7,11.2,36.1v3.9a7.25,7.25,0,0,1-.3,2.5H880.9c.2,7.2,2,12.6,5.3,16.1,3,3.7,7.6,5.6,13.7,5.6a19.29,19.29,0,0,0,10.2-2.5,4.36,4.36,0,0,0,1.9-1.2l1.9-1.9c.2-.7,1.1-1.6,2.6-2.8C917.8,193.4,920,192.8,922.8,192.8Zm-42-27.3h35.7c-.5-6.3-2.1-11-4.9-14-3-3.3-7.4-4.9-13-4.9a17,17,0,0,0-12.6,4.9C882.8,154.7,881,159.4,880.8,165.5Z" style="fill:#f7941d"/><path d="M581.2,251,571,274.3h-3.6l4-9-3.5-14.2h3.3l2.3,9.9h.1l4.1-9.9h3.5Z" style="fill:#6b6b6b"/><path d="M595.3,257.6a11.93,11.93,0,0,1-.9,4.7,7.84,7.84,0,0,1-2.6,3.3,6.28,6.28,0,0,1-3.7,1.2,5.71,5.71,0,0,1-3.2-.9,6,6,0,0,1-2.2-2.5,8.74,8.74,0,0,1-.8-3.7,10,10,0,0,1,1-4.6,8.91,8.91,0,0,1,2.7-3.3,6.28,6.28,0,0,1,3.7-1.2,5.38,5.38,0,0,1,3.1.9,5.77,5.77,0,0,1,2.1,2.5A6.85,6.85,0,0,1,595.3,257.6Zm-3.5-.2a4.86,4.86,0,0,0-.7-2.8,2.26,2.26,0,0,0-1.9-1.1,2.83,2.83,0,0,0-2,.9,6.92,6.92,0,0,0-1.4,2.4,11.15,11.15,0,0,0-.5,3.1,4.48,4.48,0,0,0,.4,2,3.59,3.59,0,0,0,1,1.4,2.11,2.11,0,0,0,1.3.5,3.18,3.18,0,0,0,2-.8,4.75,4.75,0,0,0,1.4-2.3A12.42,12.42,0,0,0,591.8,257.4Z" style="fill:#6b6b6b"/><path d="M599.8,251h3.3l-1.1,8.6c-.1.8-.2,1.3-.2,1.5v.8a2.12,2.12,0,0,0,.4,1.4,1.17,1.17,0,0,0,1.1.5,3.19,3.19,0,0,0,1.7-.7,15,15,0,0,0,2.3-2.2l1.3-9.9h3.3l-2,15.4h-3.4l.3-2.5a8.49,8.49,0,0,1-2.4,2,4.42,4.42,0,0,1-2.4.7,2.88,2.88,0,0,1-1.9-.6,4.71,4.71,0,0,1-1.3-1.5,5.56,5.56,0,0,1-.4-2.3c0-.8.1-1.7.2-2.8Z" style="fill:#6b6b6b"/><path d="M623.8,255.1a1.34,1.34,0,0,0-.7-.6,1.88,1.88,0,0,0-.8-.2c-1,0-2,1.1-3,3.2l-1.2,8.9h-3.3l2-15.4h3.4l-.4,2.8a12.77,12.77,0,0,1,1.9-2.3,2.57,2.57,0,0,1,1.8-.7,3.55,3.55,0,0,1,1,.2,5.5,5.5,0,0,1,.9.7Z" style="fill:#6b6b6b"/><path d="M647.9,254.2a2.77,2.77,0,0,0-1.3-.3,6.62,6.62,0,0,0-1.5-.1,5.66,5.66,0,0,0-2.8.8,6.07,6.07,0,0,0-2.8,5,4,4,0,0,0,1,3,3.76,3.76,0,0,0,2.8,1.1,5.82,5.82,0,0,0,1.9-.3,15.87,15.87,0,0,0,2-.9l-.4,3.4a9.78,9.78,0,0,1-4.1.9,6.32,6.32,0,0,1-5.9-3.5,7.86,7.86,0,0,1-.8-3.8,8.92,8.92,0,0,1,1.2-4.5,7.83,7.83,0,0,1,3.3-3.2,9,9,0,0,1,4.6-1.2,9.15,9.15,0,0,1,1.6.1q.9.15,1.5.3Z" style="fill:#6b6b6b"/><path d="M662.3,266.4h-3.4l.2-1.6h0a5.54,5.54,0,0,1-3.9,1.9,4.07,4.07,0,0,1-2.4-.8,5.77,5.77,0,0,1-1.7-2.3,8.29,8.29,0,0,1-.6-3.2,10.79,10.79,0,0,1,1.2-5.2,7.67,7.67,0,0,1,3.5-3.4,12.07,12.07,0,0,1,5.2-1.2,18.25,18.25,0,0,1,4,.5Zm-1.7-12.7h-.9a5.87,5.87,0,0,0-2.3.4,4.63,4.63,0,0,0-1.8,1.3,6.6,6.6,0,0,0-1.2,2.2,8.57,8.57,0,0,0-.5,2.7,4,4,0,0,0,.7,2.6,1.9,1.9,0,0,0,1.8,1,3.68,3.68,0,0,0,1.6-.5,5.21,5.21,0,0,0,1.6-1.4Z" style="fill:#6b6b6b"/><path d="M676.3,255.1a1.34,1.34,0,0,0-.7-.6,1.88,1.88,0,0,0-.8-.2c-1,0-2,1.1-3,3.2l-1.2,8.9h-3.3l2-15.4h3.4l-.4,2.8a12.77,12.77,0,0,1,1.9-2.3,2.57,2.57,0,0,1,1.8-.7,3.55,3.55,0,0,1,1,.2,5.5,5.5,0,0,1,.9.7Z" style="fill:#6b6b6b"/><path d="M702.1,257.6a11.93,11.93,0,0,1-.9,4.7,7.84,7.84,0,0,1-2.6,3.3,6.28,6.28,0,0,1-3.7,1.2,5.71,5.71,0,0,1-3.2-.9,6,6,0,0,1-2.2-2.5,8.74,8.74,0,0,1-.8-3.7,10,10,0,0,1,1-4.6,8.91,8.91,0,0,1,2.7-3.3,6.28,6.28,0,0,1,3.7-1.2,5.38,5.38,0,0,1,3.1.9,5.77,5.77,0,0,1,2.1,2.5A8,8,0,0,1,702.1,257.6Zm-3.5-.2a4.86,4.86,0,0,0-.7-2.8,2.26,2.26,0,0,0-1.9-1.1,2.83,2.83,0,0,0-2,.9,6.92,6.92,0,0,0-1.4,2.4,11.15,11.15,0,0,0-.5,3.1,4.48,4.48,0,0,0,.4,2,3.59,3.59,0,0,0,1,1.4,2.11,2.11,0,0,0,1.3.5,3.18,3.18,0,0,0,2-.8,4.75,4.75,0,0,0,1.4-2.3A12.42,12.42,0,0,0,698.6,257.4Z" style="fill:#6b6b6b"/><path d="M706.6,251h3.3l-1.1,8.6c-.1.8-.2,1.3-.2,1.5v.8a2.12,2.12,0,0,0,.4,1.4,1.17,1.17,0,0,0,1.1.5,3.19,3.19,0,0,0,1.7-.7,15,15,0,0,0,2.3-2.2l1.3-9.9h3.3l-2,15.4h-3.3l.3-2.5a8.49,8.49,0,0,1-2.4,2,4.42,4.42,0,0,1-2.4.7,2.88,2.88,0,0,1-1.9-.6,4.71,4.71,0,0,1-1.3-1.5,5.56,5.56,0,0,1-.4-2.3c0-.8.1-1.7.2-2.8Z" style="fill:#6b6b6b"/><path d="M730.6,255.1a1.34,1.34,0,0,0-.7-.6,1.88,1.88,0,0,0-.8-.2c-1,0-2,1.1-3,3.2l-1.2,8.9h-3.3l2-15.4H727l-.4,2.8a12.77,12.77,0,0,1,1.9-2.3,2.57,2.57,0,0,1,1.8-.7,3.55,3.55,0,0,1,1,.2,5.5,5.5,0,0,1,.9.7Z" style="fill:#6b6b6b"/><path d="M754.7,254.2a2.77,2.77,0,0,0-1.3-.3,6.62,6.62,0,0,0-1.5-.1,5.66,5.66,0,0,0-2.8.8,6.07,6.07,0,0,0-2.8,5,4,4,0,0,0,1,3,3.76,3.76,0,0,0,2.8,1.1,5.82,5.82,0,0,0,1.9-.3,15.87,15.87,0,0,0,2-.9l-.4,3.4a9.78,9.78,0,0,1-4.1.9,6.32,6.32,0,0,1-5.9-3.5,7.86,7.86,0,0,1-.8-3.8A8.92,8.92,0,0,1,744,255a7.83,7.83,0,0,1,3.3-3.2,9,9,0,0,1,4.6-1.2,9.15,9.15,0,0,1,1.6.1q.9.15,1.5.3Z" style="fill:#6b6b6b"/><path d="M769.1,266.4h-3.4l.2-1.6h0a5.54,5.54,0,0,1-3.9,1.9,4.07,4.07,0,0,1-2.4-.8,5.77,5.77,0,0,1-1.7-2.3,8.29,8.29,0,0,1-.6-3.2,10.79,10.79,0,0,1,1.2-5.2,7.67,7.67,0,0,1,3.5-3.4,12.07,12.07,0,0,1,5.2-1.2,18.25,18.25,0,0,1,4,.5Zm-1.7-12.7h-.9a5.87,5.87,0,0,0-2.3.4,4.63,4.63,0,0,0-1.8,1.3,6.6,6.6,0,0,0-1.2,2.2,8.57,8.57,0,0,0-.5,2.7,4,4,0,0,0,.7,2.6,1.9,1.9,0,0,0,1.8,1,3.68,3.68,0,0,0,1.6-.5,5.21,5.21,0,0,0,1.6-1.4Z" style="fill:#6b6b6b"/><path d="M783.1,255.1a1.34,1.34,0,0,0-.7-.6,1.88,1.88,0,0,0-.8-.2c-1,0-2,1.1-3,3.2l-1.2,8.9h-3.3l2-15.4h3.4l-.4,2.8a12.77,12.77,0,0,1,1.9-2.3,2.57,2.57,0,0,1,1.8-.7,3.55,3.55,0,0,1,1,.2,5.5,5.5,0,0,1,.9.7Z" style="fill:#6b6b6b"/><path d="M792.5,250.6a5.12,5.12,0,0,1,2.8.8,4.85,4.85,0,0,1,1.9,2.3,7.39,7.39,0,0,1,.7,3.4,12.37,12.37,0,0,1-.2,1.8h-9a4.1,4.1,0,0,0-.1,1.1,5.45,5.45,0,0,0,.5,2.2,3,3,0,0,0,1.3,1.4,3.45,3.45,0,0,0,1.8.5,6.31,6.31,0,0,0,2.2-.5,17.62,17.62,0,0,0,2.7-1.4l-.6,3.3a9,9,0,0,1-4.8,1.5,6.4,6.4,0,0,1-3.4-.9,5.62,5.62,0,0,1-2.2-2.6,9.7,9.7,0,0,1-.8-3.9,10.49,10.49,0,0,1,.9-4.4,7.53,7.53,0,0,1,2.6-3.2A6.52,6.52,0,0,1,792.5,250.6Zm2.2,5.9v-.3a3.28,3.28,0,0,0-.6-2.1,2.14,2.14,0,0,0-1.7-.8c-1.5,0-2.5,1.1-3.2,3.2Z" style="fill:#6b6b6b"/><path d="M127,254C57,254,0,197,0,127S57,0,127,0,254,57,254,127A127.12,127.12,0,0,1,127,254ZM127,9.3A117.7,117.7,0,1,0,244.7,127,117.83,117.83,0,0,0,127,9.3Z" style="fill:#0674ed"/><path d="M140.6,110.2a52.06,52.06,0,0,0-29.3-7.8c-1.9.1-2.7.7-2.7,2.6,0,1.5.1,3,0,4.5-.1,2.6,1.2,3.6,3.7,3.6,6.1,0,12.1,1,18.2.8h8.9c1.2,0,2.7.7,3.3-.7C143.3,111.6,141.7,110.9,140.6,110.2Z" style="fill:none"/><path d="M182.1,111.5s1.6,2.3,2.2,2.3c0,0,3.5-.9,3.6-2.2C188,111.5,184.8,112.6,182.1,111.5Z" style="fill:none"/><path d="M226.6,149.4c-2.8-.3-6.2,1.2-8.2-.9s.1-5.4-.3-8.3a53,53,0,0,1,.8-20.6c.8-3.1,1.7-6.7-.6-9.4-4.8-5.5-9.8-10.9-17.6-12.3-2.6-.5-5.3-1.1-7.1-3.5s-4.3-3-6.9-1.5c-2.9,1.6-2.8,4.8-3.3,7.5-.2.7.8,1,2.1-1,.6,1.2,4.6,3.9,7.9,2.5-1,3.5-1,5.5-4.3,6.1-1,.3-7.7,3.1-9.2-1.3-.3-.8-1.3-2-2.1-1.5a1.33,1.33,0,0,1,.6.5.92.92,0,1,1-1.5,1c-.1-.1-.1-.3-.2-.4-1.2.6.1,2.1.9,2.6a2.51,2.51,0,0,1,.8.5l.4.4-.5.4s-.1.4.5.2h0c0,.1-.3.3-.2.3h.1c0,.1.2.1.3.1l-.1.1c-.2.2,0,.3,0,.3h.1c-.2.2,0,.3,0,.3l1-.2h0c1.2,1.8,2.1,4,1.8,4.7-.5,1-1.7.9-2.6.8-4.7-.6-9.4-1-14-2-2.6-.5-2.8-2.1-.7-4,4.8-4.4,9.4-8.9,14.2-13.4,3.5-3.4,7.4-6.3,10.3-10.4.9-1.2,2.3-2.9,1.1-4.3-1.1-1.2-2.8,0-4.1.5a37.66,37.66,0,0,0-9.8,6.4c-6.4,5.7-12.8,11.3-18.9,17.2-2.9,2.8-5.2,3.3-8.8.9-6.5-4.2-13.2-8.4-20.9-9.7-20-3.5-39.8-3.8-58.9,4.7-9.2,4.1-18.3,8.3-28.8,6.7-1.5-.2-2.7.4-2.7,2.2,0,4.4-1.4,8.5-2,12.8-.8,6.5,2.6,13.4,7.8,15.7,3.1,1.4,6.3,2.4,9.5,3.5,2.7,1,3.7.2,3.4-2.8-.4-3.7,0-7.3,2.5-10.4A14.08,14.08,0,0,1,74.5,126a12.79,12.79,0,0,1,7.5,7.6h77.4a14.14,14.14,0,0,1,5.9-6.7,13.8,13.8,0,0,1,15.9,1.6c4.2,3.6,5.2,8.4,4.3,13.6-.3,1.6-.4,2.6,1.8,2.5a14.73,14.73,0,0,0,13.9-11.9c1.3-6.3-1.7-11.3-7.9-13.4-1.9-.6-3.8-1.1-6.2-1.9,3.5-5.7,6.6-4.8,10.4-7.6.2-.3,1.8-.3,2.2-.3,3.4-.3,8.5,4.6,8.6,8.2.2,6.4.3,12.7.6,19.1s-2.1,11.4-6.9,11.8c-7.1.7-14.3.2-21.8.2a12.87,12.87,0,0,1-7.9,2.8,12.65,12.65,0,0,1-8-2.9H77.2a12.53,12.53,0,0,1-8.2,3,12,12,0,0,1-7.8-2.8H28.6c-2.2,0-3.7.5-3.7,3.1,0,2.4.5,4.4,3.3,4.7,1.2.1,2.4.1,3.7.1H45.1a13.55,13.55,0,0,1,2-.2H153.6a12.31,12.31,0,0,1,2,.2h66a22.62,22.62,0,0,0,4.5-.2c2.7-.4,2.8-2.5,2.8-4.6C229,150.7,228.5,149.6,226.6,149.4ZM97.8,112.9H91.7c-6.4.3-12.7-.8-19-.9-1.1,0-2.4.1-2.7-1.2-.4-1.5.8-2.1,1.9-2.7a71.93,71.93,0,0,1,30.3-6.3c1.8,0,2.8.7,2.8,2.6v.8C105.5,113,105.4,113.1,97.8,112.9Zm44.9.3c-.5,1.4-2.1.7-3.3.7h-8.9c-6.1.2-12.1-.9-18.2-.8-2.5,0-3.8-1-3.7-3.6.1-1.5,0-3,0-4.5,0-1.9.7-2.5,2.7-2.6a52.06,52.06,0,0,1,29.3,7.8C141.7,110.9,143.3,111.6,142.7,113.2Zm41.6.5c-.6,0-2.2-2.3-2.2-2.3a8.81,8.81,0,0,0,5.9,0C187.8,112.8,184.3,113.7,184.3,113.7Z" style="fill:#0674ed"/><polygon points="61 144.3 57.9 139 61 133.8 67 133.8 70.1 139 67 144.3 61 144.3" style="fill:#fff;fill-rule:evenodd"/><polygon points="174 134.7 171.5 139 174 143.3 178.9 143.3 181.4 139 178.9 134.7 174 134.7" style="fill:#fff"/><path d="M167.6,138.9l4.6-7.4h9.2a11.53,11.53,0,0,0-20.5,5.1H80.3a11.53,11.53,0,0,0-20.5-5.1H69l4.6,7.4L69,146.3H60.3A11.59,11.59,0,0,0,79.7,143h82a11.59,11.59,0,0,0,19.4,3.3h-8.7Z" style="fill:#f7941d"/><polygon points="174 134.7 171.5 139 174 143.3 178.9 143.3 181.4 139 178.9 134.7 174 134.7" style="fill:#0674ed"/><polygon points="61.9 134.7 59.4 139 61.9 143.3 66.9 143.3 69.3 139 66.9 134.7 61.9 134.7" style="fill:#0674ed"/><path d="M538.4,237.5H338.7v4.2H542c.3-1.4,1.2-2.8,1.6-4.2Z" style="fill:#6b6b6b"/><rect x="338.8" y="250.2" width="10.2" height="4.2" style="fill:#6b6b6b"/><rect x="358.2" y="250.2" width="10.2" height="4.2" style="fill:#6b6b6b"/><rect x="377.7" y="250.2" width="10.2" height="4.2" style="fill:#6b6b6b"/><rect x="397.2" y="250.2" width="10.2" height="4.2" style="fill:#6b6b6b"/><rect x="416.7" y="250.2" width="10.2" height="4.2" style="fill:#6b6b6b"/><rect x="436.2" y="250.2" width="10.2" height="4.2" style="fill:#6b6b6b"/><rect x="455.6" y="250.2" width="10.2" height="4.2" style="fill:#6b6b6b"/><rect x="475.1" y="250.2" width="10.2" height="4.2" style="fill:#6b6b6b"/><rect x="494.6" y="250.2" width="10.2" height="4.2" style="fill:#6b6b6b"/><rect x="514.1" y="250.2" width="10.2" height="4.2" style="fill:#6b6b6b"/><polygon points="532.8 263 532.2 263 527.7 263 348.2 263 343.8 263 343.2 263 338.8 263 338.8 267.2 343.2 267.2 343.8 267.2 348.2 267.2 525.6 267.2 530 267.2 530.6 267.2 535.1 267.2 537.2 263 532.8 263" style="fill:#6b6b6b"/></g></g></svg>