<svg xmlns="http://www.w3.org/2000/svg" xmlns:xlink="http://www.w3.org/1999/xlink" viewBox="0 0 939.11 215.71"><defs><radialGradient id="radial-gradient" cx="423.09" cy="-973.37" r="183.96" gradientTransform="matrix(0.58, -0.81, -0.81, -0.58, -922.33, -274.97)" gradientUnits="userSpaceOnUse"><stop offset="0.02" stop-color="#94fff1"/><stop offset="0.17" stop-color="#0af"/><stop offset="0.17" stop-color="#00a8fe"/><stop offset="0.28" stop-color="#0084dd"/><stop offset="0.4" stop-color="#0067c3"/><stop offset="0.53" stop-color="#004fae"/><stop offset="0.66" stop-color="#003f9f"/><stop offset="0.81" stop-color="#003597"/><stop offset="1" stop-color="#003294"/></radialGradient><radialGradient id="radial-gradient-2" cx="202.46" cy="-1103.17" r="158.03" gradientTransform="matrix(0.58, -0.81, -0.81, -0.58, -922.33, -274.97)" gradientUnits="userSpaceOnUse"><stop offset="0.02" stop-color="#94fff1"/><stop offset="0.35" stop-color="#0af"/><stop offset="0.5" stop-color="#008ce0"/><stop offset="0.72" stop-color="#0065b7"/><stop offset="0.89" stop-color="#004c9d"/><stop offset="1" stop-color="#004394"/></radialGradient><radialGradient id="radial-gradient-3" cx="251.1" cy="-1090.03" r="62.97" xlink:href="#radial-gradient-2"/><radialGradient id="radial-gradient-4" cx="-383.98" cy="849.23" r="85.31" gradientTransform="matrix(-1, 0, 0, 1, -238.24, -788)" gradientUnits="userSpaceOnUse"><stop offset="0.06" stop-color="#ffc93e"/><stop offset="0.17" stop-color="#ffc63e"/><stop offset="0.25" stop-color="#fdbc3e"/><stop offset="0.32" stop-color="#fbac3e"/><stop offset="0.39" stop-color="#f7953f"/><stop offset="0.45" stop-color="#f3773f"/><stop offset="0.48" stop-color="#f16a3f"/></radialGradient></defs><g id="Layer_2" data-name="Layer 2"><g id="Layer_1-2" data-name="Layer 1"><rect x="236.71" y="22.61" width="3.8" height="159.6" style="fill:#bcbcbc"/><path d="M493.41,215.11h-3.7l-1.4-3.6h-8.6l-1.4,3.6h-3.7l7.2-18.2h4.4Zm-12.5-6.7H487l-3-7.5h-.1Z" style="fill:#6b6b6b"/><path d="M503.61,196.91c5.6,0,9.4,3.9,9.4,9.1s-3.7,9.1-9.4,9.1h-6.7v-18.2Zm-3.2,3v12.2h3.2c3.4,0,5.7-2.5,5.7-6.1s-2.4-6.1-5.7-6.1Z" style="fill:#6b6b6b"/><path d="M524,196.91c5.6,0,9.4,3.9,9.4,9.1s-3.7,9.1-9.4,9.1h-6.7v-18.2Zm-3.2,3v12.2H524c3.4,0,5.7-2.5,5.7-6.1s-2.4-6.1-5.7-6.1Z" style="fill:#6b6b6b"/><path d="M557.71,201.61l-3.6,13.5h-4.7l-4.9-18.2h3.7l3.6,13.6h.1l3.6-13.6h4.2l3.6,13.6h.1l3.6-13.6h3.7l-4.9,18.2h-4.4l-3.6-13.5Z" style="fill:#6b6b6b"/><path d="M583,196.41c5.5,0,9.4,4,9.4,9.6s-3.9,9.6-9.4,9.6-9.4-4-9.4-9.6S577.51,196.41,583,196.41Zm0,3.1c-3.2,0-5.7,2.6-5.7,6.5s2.5,6.5,5.7,6.5,5.7-2.6,5.7-6.5S586.21,199.51,583,199.51Z" style="fill:#6b6b6b"/><path d="M604.61,196.91c4.7,0,7.2,2.6,7.2,6a5.59,5.59,0,0,1-3.2,5.2v.1l4.6,6.9h-4.1l-4.1-6.2h-4.9v6.2h-3.5v-18.2Zm0,3h-4.5v6h4.5c2.4,0,3.6-1.6,3.6-3C608.31,201.21,607,199.91,604.61,199.91Z" style="fill:#6b6b6b"/><path d="M630.81,196.91v3h-6v15.2h-3.5v-15.2h-6v-3Z" style="fill:#6b6b6b"/><path d="M650.51,196.91v18.2H647v-7.5h-9v7.5h-3.5v-18.2H638v7.7h9v-7.7Z" style="fill:#6b6b6b"/><path d="M678.21,196.91v3h-6v15.2h-3.5v-15.2h-6v-3Z" style="fill:#6b6b6b"/><path d="M689.71,196.41c5.5,0,9.4,4,9.4,9.6s-3.9,9.6-9.4,9.6-9.4-4-9.4-9.6S684.21,196.41,689.71,196.41Zm0,3.1c-3.2,0-5.7,2.6-5.7,6.5s2.5,6.5,5.7,6.5,5.7-2.6,5.7-6.5S693,199.51,689.71,199.51Z" style="fill:#6b6b6b"/><path d="M723.81,196.91h3.7l-7.1,12.5v5.7h-3.5v-5.7l-7.1-12.5h3.7l5,8.8h.2Z" style="fill:#6b6b6b"/><path d="M739.21,196.41c5.5,0,9.4,4,9.4,9.6s-3.9,9.6-9.4,9.6-9.4-4-9.4-9.6S733.71,196.41,739.21,196.41Zm0,3.1c-3.2,0-5.7,2.6-5.7,6.5s2.5,6.5,5.7,6.5,5.7-2.6,5.7-6.5S742.51,199.51,739.21,199.51Z" style="fill:#6b6b6b"/><path d="M752.81,207.91V197h3.5v10.9c0,2.9,1.7,4.7,4.5,4.7s4.5-1.8,4.5-4.7V197h3.5v10.9c0,4.5-3.1,7.8-8,7.8S752.81,212.41,752.81,207.91Z" style="fill:#6b6b6b"/><path d="M781.91,196.91c4.7,0,7.2,2.6,7.2,6a5.59,5.59,0,0,1-3.2,5.2v.1l4.6,6.9h-4.1l-4.1-6.2h-4.9v6.2h-3.5v-18.2Zm0,3h-4.5v6h4.5c2.4,0,3.6-1.6,3.6-3C785.51,201.21,784.31,199.91,781.91,199.91Z" style="fill:#6b6b6b"/><path d="M802.61,196.91h7.7c4.6,0,6.6,2.1,6.6,4.9a3.83,3.83,0,0,1-2.9,3.6v.1s4.1.7,4.1,4.4c0,2.7-2.4,5.2-6.9,5.2h-8.7l.1-18.2Zm10.8,5.2c0-1.2-1-2.2-3-2.2h-4.2v4.4h4.2C812.41,204.41,813.41,203.31,813.41,202.11Zm-7.3,5.2v4.8h5.2c2.2,0,3.2-1,3.2-2.3s-1-2.5-3.2-2.5Z" style="fill:#6b6b6b"/><path d="M822.21,207.91V197h3.5v10.9c0,2.9,1.7,4.7,4.5,4.7s4.5-1.8,4.5-4.7V197h3.5v10.9c0,4.5-3.1,7.8-8,7.8S822.21,212.41,822.21,207.91Z" style="fill:#6b6b6b"/><path d="M856,198.61l-1.4,2.5a8.15,8.15,0,0,0-4.6-1.6c-2.4,0-3.5,1.2-3.5,2.1,0,3.6,9.9,1.8,9.9,8.2,0,3.1-2.6,5.9-7.6,5.9a10.23,10.23,0,0,1-6.6-2.5l1.5-2.5a7.56,7.56,0,0,0,4.9,2c2.9,0,4.2-1.4,4.2-2.9,0-3.2-9.9-1.6-9.9-8.2,0-2.6,2.5-5.2,6.9-5.2A10.13,10.13,0,0,1,856,198.61Z" style="fill:#6b6b6b"/><path d="M864,215.11h-3.5v-18.2H864Z" style="fill:#6b6b6b"/><path d="M881.71,209.41v-12.5h3.5v18.2h-3.7l-8.6-12.5h-.1v12.5h-3.5v-18.2H873l8.6,12.5Z" style="fill:#6b6b6b"/><path d="M890.51,196.91h14v3H894v4.7h7.2v3H894v4.5h10.7v3h-14.2v-18.2Z" style="fill:#6b6b6b"/><path d="M921.31,198.61l-1.4,2.5a8.15,8.15,0,0,0-4.6-1.6c-2.4,0-3.5,1.2-3.5,2.1,0,3.6,9.9,1.8,9.9,8.2,0,3.1-2.6,5.9-7.6,5.9a10.23,10.23,0,0,1-6.6-2.5l1.5-2.5a7.56,7.56,0,0,0,4.9,2c2.9,0,4.2-1.4,4.2-2.9,0-3.2-9.9-1.6-9.9-8.2,0-2.6,2.5-5.2,6.9-5.2A10.13,10.13,0,0,1,921.31,198.61Z" style="fill:#6b6b6b"/><path d="M938.41,198.61l-1.4,2.5a8.15,8.15,0,0,0-4.6-1.6c-2.4,0-3.5,1.2-3.5,2.1,0,3.6,9.9,1.8,9.9,8.2,0,3.1-2.6,5.9-7.6,5.9a10.23,10.23,0,0,1-6.6-2.5l1.5-2.5a7.56,7.56,0,0,0,4.9,2c2.9,0,4.2-1.4,4.2-2.9,0-3.2-9.9-1.6-9.9-8.2,0-2.6,2.5-5.2,6.9-5.2A10.13,10.13,0,0,1,938.41,198.61Z" style="fill:#6b6b6b"/><path d="M179,35.51c-11.4-6.8-61.4-23.9-93.1,11.4,0,0-45,53.6,1.5,77.2a94,94,0,0,1-11.1-3.4s-36.7-13.3-45.2-43.5l36.8-51.3c2.3-2.8.5-13.3-9.4-9.8a53.38,53.38,0,0,0-18.7,14.7,132,132,0,0,1,13.1-18.3,101.81,101.81,0,0,1,108.3,6.6A99.64,99.64,0,0,1,179,35.51Z" style="fill:url(#radial-gradient)"/><path d="M39.81,30.81a53.59,53.59,0,0,0-9.1,22.4c-10.3,47.3,45.7,67.5,45.7,67.5a100.16,100.16,0,0,0,11.1,3.4h0s45.9,19.2,101.1-23.5c5.5-4.1,8.4-1.8,10.6,3,4.3,10.6.1,29-3.5,37.7a.1.1,0,0,1-.1-.1c-5.4,10.2-11.4,17.4-17.5,22.5,3.1-3.6,4.1-4.6,5.5-7.8,1.6-4.5,1-9.2-18.9-3.6-11.1,3.7-31.8,12.1-41.9,15-48.9,18.7-83,8.1-99.2-.1a102,102,0,0,1,29.3-154.6A131.54,131.54,0,0,0,39.81,30.81Z" style="fill:url(#radial-gradient-2)"/><path d="M42.51,184.61a105.51,105.51,0,0,1-18.9-17.5c16.2,8.2,50.3,18.8,99.2.1a55.92,55.92,0,0,0,25.1,7c27.8-.6,42.3-22.9,47.7-33l.1.1a98.92,98.92,0,0,1-11.2,20A101.75,101.75,0,0,1,42.51,184.61Z" style="fill:url(#radial-gradient-3)"/><path d="M146.81,59.51a26.23,26.23,0,1,0,6,36.6A26.31,26.31,0,0,0,146.81,59.51Z" style="fill:url(#radial-gradient-4)"/><path d="M297,147.71v34.6H277V95.71a10.24,10.24,0,0,1,10.2-10.2h32.9c10.3,0,18,2.6,23,7.9,5.2,5.2,7.9,13,7.9,23.3,0,9.7-2.5,17.4-7.6,23-5.1,5.2-12.4,7.9-21.9,7.9l-24.5.1Zm0-17.5h19.4c5.2,0,9-1.1,11.2-3.4,2.4-2.1,3.7-5.6,3.7-10.7,0-4.3-1.1-7.8-3.4-10.4a15.67,15.67,0,0,0-10.4-3.4H297v27.9Z" style="fill:#0674ed"/><path d="M356.81,182.21v-36.3c0-7.3,1.1-13.4,3.2-18.4a30.12,30.12,0,0,1,8.9-11.9,34.91,34.91,0,0,1,12.5-6.2,56.21,56.21,0,0,1,14.8-2H399v20h-6.5c-5.4,0-9.5,1.3-12.1,3.9s-3.9,6.7-3.9,12.4v38.5Z" style="fill:#0674ed"/><path d="M412.31,175.51a28.19,28.19,0,0,1-8.4-13.6,62.25,62.25,0,0,1-2.5-17.8,56.85,56.85,0,0,1,2.1-15.2,30.3,30.3,0,0,1,6.6-12.6,29.57,29.57,0,0,1,18.8-10,44.34,44.34,0,0,1,20.8,1.8,28.46,28.46,0,0,1,15.7,14.6,46.46,46.46,0,0,1,4.8,21.6,54,54,0,0,1-2,15.5,38.64,38.64,0,0,1-5.1,11,28,28,0,0,1-17.1,11.5,38.18,38.18,0,0,1-18.7.4Q418,180.61,412.31,175.51Zm13.5-49.5c-3.9,4.3-5.7,10.7-5.3,19.3s2,14.5,4.8,17.9a12.31,12.31,0,0,0,5.9,3.8,14,14,0,0,0,8.6.3c2.9-.8,5.5-3,7.7-6.3s3.5-8.8,3.7-16.3c0-6.7-1.1-11.8-3.2-15.2s-4.6-5.5-7.4-6.5a13.41,13.41,0,0,0-8.4-.1A13.17,13.17,0,0,0,425.81,126Z" style="fill:#0674ed"/><path d="M540.71,182.21h-19.4v-47.7c0-4.5-1.4-7.8-4.1-9.8a14.53,14.53,0,0,0-9.1-3.1,14.06,14.06,0,0,0-9,3.1c-2.6,2.1-3.9,5.3-3.9,9.8v47.8h-19.7v-43.8c0-12.7,3.3-21.3,10-25.6a43.73,43.73,0,0,1,22.1-7,58.62,58.62,0,0,1,12.6,1.4,25.79,25.79,0,0,1,11.2,5.6,24.52,24.52,0,0,1,10-5.2,57.91,57.91,0,0,1,11.9-1.8,42.81,42.81,0,0,1,22.8,6.5c6.9,4.3,10.4,13,10.4,26.1v43.8h-9.8a9.24,9.24,0,0,1-9.6-9.6v-38.2c0-4.5-1.4-7.8-4.1-9.8a14.91,14.91,0,0,0-18.2,0c-2.7,2.1-4.1,5.3-4.1,9.8v47.7Z" style="fill:#0674ed"/><path d="M603.31,175.51a28.19,28.19,0,0,1-8.4-13.6,62.25,62.25,0,0,1-2.5-17.8,56.85,56.85,0,0,1,2.1-15.2,30.3,30.3,0,0,1,6.6-12.6,29.57,29.57,0,0,1,18.8-10,44.34,44.34,0,0,1,20.8,1.8,28.46,28.46,0,0,1,15.7,14.6,46.46,46.46,0,0,1,4.8,21.6,54,54,0,0,1-2,15.5,38.64,38.64,0,0,1-5.1,11,28,28,0,0,1-17.1,11.5,38.18,38.18,0,0,1-18.7.4C612.11,181.31,607,178.91,603.31,175.51Zm13.5-49.5c-3.9,4.3-5.7,10.7-5.3,19.3s2,14.5,4.8,17.9a12.31,12.31,0,0,0,5.9,3.8,14,14,0,0,0,8.6.3c2.9-.8,5.5-3,7.7-6.3s3.5-8.8,3.7-16.3c0-6.7-1.1-11.8-3.2-15.2s-4.6-5.5-7.4-6.5a13.41,13.41,0,0,0-8.4-.1A13.17,13.17,0,0,0,616.81,126Z" style="fill:#0674ed"/><path d="M752.71,148.81c-.9,11.2-5.2,20.1-12.6,26.4-7.7,6.2-17.8,9.3-30.4,9.3-14.6,0-25.8-4.4-33.4-13.2-7.7-8.4-11.5-20.9-11.5-37.4,0-16.9,3.9-29.5,11.8-37.9,8.1-8.8,19.7-13.2,34.9-13.2,12.4,0,22.2,3.1,29.5,9.3,6.9,6,10.9,14.4,11.8,25.3h-12.1a9.91,9.91,0,0,1-9.6-5.9,28.06,28.06,0,0,0-4.8-6.5c-3.8-2.8-8.7-4.2-14.9-4.2-8.6,0-15.3,2.8-20,8.4-4.5,5.6-6.7,13.9-6.7,24.7,0,10.5,2.2,18.6,6.7,24.2,4.3,5.8,10.8,8.7,19.4,8.7,6,0,11-1.5,14.9-4.5,3.6-2.8,6.1-7.3,7.6-13.5Z" style="fill:#f7941d"/><path d="M806.91,179.21a34.26,34.26,0,0,1-12.5,3.8,103.85,103.85,0,0,1-11.7.7,29.31,29.31,0,0,1-17.7-5.5c-5.1-3.7-7.6-9.7-7.6-18.1,0-7.9,2.3-13.5,6.9-16.9s10.4-5.6,17.6-6.7a15.46,15.46,0,0,0,3.4-.4,43,43,0,0,1,4.5-.7c8.2-1.1,12.4-3.6,12.4-7.3,0-2.8-1.5-4.6-4.4-5.5a30.9,30.9,0,0,0-8-1.3,21.42,21.42,0,0,0-7,1.1,7.76,7.76,0,0,0-4.5,4.2h-18.9a21.31,21.31,0,0,1,7.9-14.3c5.1-4.3,12.3-6.5,21.6-6.5,10.5,0,18.4,1.8,23.6,5.3a18.21,18.21,0,0,1,8.2,15.7v25.6c0,7.5-1.4,13.4-4.1,17.6A25.66,25.66,0,0,1,806.91,179.21Zm-4.5-34.6a58,58,0,0,1-11,3.7l-6.5,1.4a16,16,0,0,0-7.3,3.7,11.64,11.64,0,0,0-2,6.2,8.82,8.82,0,0,0,2.5,6.7c1.7,1.5,4.1,2.2,7.3,2.2,5.2,0,9.4-1.5,12.4-4.5s4.5-7.1,4.5-12.4l.1-7Z" style="fill:#f7941d"/><path d="M825.61,182.21v-36.3c0-7.3,1.1-13.4,3.2-18.4a30.12,30.12,0,0,1,8.9-11.9,34.91,34.91,0,0,1,12.5-6.2,56.21,56.21,0,0,1,14.8-2h2.8v20h-6.5c-5.4,0-9.5,1.3-12.1,3.9s-3.9,6.7-3.9,12.4v38.5Z" style="fill:#f7941d"/><path d="M923.91,159.21H938c-2.1,7.9-6,13.9-11.8,18-5.8,4.3-13.1,6.5-21.9,6.5-10.7,0-19-3.5-25-10.4-6-6.7-9-16.4-9-29,0-12,2.9-21.4,8.7-28.1,6-6.9,14.3-10.4,25-10.4,11.2,0,20,3.4,26.1,10.1,6,6.9,9,16.6,9,29V148a4.92,4.92,0,0,1-.3,2h-48.6q.3,8.7,4.2,12.9c2.4,3,6.1,4.5,11,4.5a16.32,16.32,0,0,0,8.2-2,3.07,3.07,0,0,0,1.5-1l1.5-1.5a5.78,5.78,0,0,1,2.1-2.2A8.05,8.05,0,0,1,923.91,159.21Zm-33.7-21.9h28.7c-.4-5.1-1.7-8.8-3.9-11.2-2.4-2.6-5.9-3.9-10.4-3.9a13.72,13.72,0,0,0-10.1,3.9C891.81,128.71,890.41,132.41,890.21,137.31Z" style="fill:#f7941d"/><path d="M278.61,78.71v-9.8h42a9,9,0,0,0,6.1-2,6.93,6.93,0,0,0,2.1-5.3,6.72,6.72,0,0,0-2.1-5.4c-1.4-1.2-3.4-1.8-6.1-1.8h-25.8a20,20,0,0,1-7.1-1.2,16.33,16.33,0,0,1-5.4-3.3,13.85,13.85,0,0,1-3.4-5.1,17,17,0,0,1-1.2-6.4,18.1,18.1,0,0,1,1.1-6.3,14.08,14.08,0,0,1,3.3-5,16.33,16.33,0,0,1,5.4-3.3,21.27,21.27,0,0,1,7.4-1.2h40.3v9.8h-40.3a6.42,6.42,0,0,0-7.1,6.9,6.34,6.34,0,0,0,1.9,5,7.22,7.22,0,0,0,5.1,1.8h25.7c5.7,0,10,1.3,13,4s4.4,6.7,4.4,12.2a20.3,20.3,0,0,1-1.1,6.6,13.81,13.81,0,0,1-3.2,5.2,14.23,14.23,0,0,1-5.4,3.4,22.24,22.24,0,0,1-7.7,1.2Z" style="fill:#f7941d"/><path d="M342.71,22.61h12l25.4,43.2,25.4-43.2h11.3l-32.4,53.7a7.56,7.56,0,0,1-2,2.3,4.3,4.3,0,0,1-2.7.8,5.12,5.12,0,0,1-2.8-.8,6.53,6.53,0,0,1-2-2.3Z" style="fill:#f7941d"/><path d="M422.81,78.71V22.61h9.8v46.3h37.7v9.8Z" style="fill:#f7941d"/><path d="M399.51,193.41H277.61v3.3h120.9C398.71,195.71,399.21,194.51,399.51,193.41Z" style="fill:#6b6b6b"/><path d="M462,193.41H340.21v3.3h120.9C461.31,195.71,461.81,194.51,462,193.41Z" style="fill:#6b6b6b"/><rect x="277.61" y="202.71" width="8.2" height="3.3" style="fill:#6b6b6b"/><rect x="293.31" y="202.71" width="8.2" height="3.3" style="fill:#6b6b6b"/><rect x="308.91" y="202.71" width="8.2" height="3.3" style="fill:#6b6b6b"/><rect x="324.61" y="202.71" width="8.2" height="3.3" style="fill:#6b6b6b"/><rect x="340.21" y="202.71" width="8.2" height="3.3" style="fill:#6b6b6b"/><rect x="355.81" y="202.71" width="8.2" height="3.3" style="fill:#6b6b6b"/><rect x="371.51" y="202.71" width="8.2" height="3.3" style="fill:#6b6b6b"/><rect x="387.11" y="202.71" width="8.2" height="3.3" style="fill:#6b6b6b"/><rect x="404.41" y="202.71" width="8.2" height="3.3" style="fill:#6b6b6b"/><rect x="420.01" y="202.71" width="8.2" height="3.3" style="fill:#6b6b6b"/><rect x="435.71" y="202.71" width="8.2" height="3.3" style="fill:#6b6b6b"/><rect x="451.31" y="202.71" width="8.2" height="3.3" style="fill:#6b6b6b"/><path d="M393.21,215.41c.3-.9.7-1.8,1.1-2.8,0-.1.1-.2.1-.3H277.61v3.4h115.5A.77.77,0,0,0,393.21,215.41Z" style="fill:#6b6b6b"/><path d="M458.31,215.41c.3-.9.7-1.8,1.1-2.8,0-.1.1-.2.1-.3H342.71v3.4h115.5A.44.44,0,0,1,458.31,215.41Z" style="fill:#6b6b6b"/></g></g></svg>