<?xml version="1.0" encoding="utf-8"?>
<!-- Generator: Adobe Illustrator 24.0.3, SVG Export Plug-In . SVG Version: 6.00 Build 0)  -->
<svg version="1.1" id="Layer_1" xmlns="http://www.w3.org/2000/svg" xmlns:xlink="http://www.w3.org/1999/xlink" x="0px" y="0px"
	 viewBox="0 0 1024 435" style="enable-background:new 0 0 1024 435;" xml:space="preserve">
<style type="text/css">
	.st0{fill:#6B6B6B;}
	.st1{fill:#0674ED;}
	.st2{fill:#E89400;}
	.st3{fill:#F7941D;}
</style>
<g>
	<path class="st0" d="M313.9,387.1l-2.3,4.7h-9.8l-11.9,23.7h-5.7l11.9-23.7h-9.8l2.3-4.7H313.9z"/>
	<path class="st0" d="M345.1,387.1l-14.2,28.4h-5.7l5.9-11.7h-14.7l-5.9,11.7h-5.7l14.2-28.4h5.7l-6,12h14.7l6-12H345.1z"/>
	<path class="st0" d="M352.7,387.1h22.8l-2.3,4.7h-17.1l-3.7,7.3h11.8l-2.3,4.7h-11.8l-3.6,7.1h17.5l-2.3,4.7h-23.2L352.7,387.1z"/>
	<path class="st0" d="M413.5,389.7l-4.2,3.8c0,0-2-2.4-6.3-2.4c-3.9,0-6.6,1.8-7.3,3.2c-2.8,5.7,14.7,2.8,9.7,12.8
		c-2.4,4.9-8.9,9.1-17,9.1c-6.6,0-8.9-3.8-8.9-3.8l4.4-3.8c0,0,1.8,3,6.4,3c4.7,0,8.1-2.2,9.2-4.5c2.5-5.1-14.9-2.4-9.7-12.8
		c2-4.1,8.1-8.1,15.3-8.1C411.2,386.3,413.5,389.7,413.5,389.7z"/>
	<path class="st0" d="M423.3,411.4l0.5-15.2h-0.2l-11.9,19.2h-5.9l17.7-28.4h6.3l-0.7,17.6h0.2l17-17.6h6.3l-10.8,28.4h-5.9
		l7.4-19.2h-0.2l-14.8,15.2H423.3z"/>
	<path class="st0" d="M476.2,415.5h-6.1l0.6-5.7h-14.1l-5.1,5.7h-6.1l26.1-28.4h7.1L476.2,415.5z M461.1,404.9h10l1-11.7h-0.2
		L461.1,404.9z"/>
	<path class="st0" d="M508.2,387.1c7.7,0,9.8,4.1,7.1,9.3c-3.1,6.1-9.4,8.1-9.4,8.1l-0.1,0.2l2.2,10.7h-6.7l-1.8-9.7h-8l-4.9,9.7
		h-5.7l14.2-28.4H508.2z M505.8,391.8h-7.3l-4.7,9.3h7.3c3.9,0,7.1-2.4,8.2-4.7C510.7,393.8,509.7,391.8,505.8,391.8z"/>
	<path class="st0" d="M549.8,387.1l-2.3,4.7h-9.8l-11.9,23.7h-5.7l11.9-23.7h-9.8l2.3-4.7H549.8z"/>
	<path class="st0" d="M582.9,394.4l-16.5,21.1h-7.5l6.3-28.4h6.1l-4.8,21.3h0.2l16.5-21.3h6.9l-4.8,21.3h0.2l16.6-21.3h6.1
		L586,415.5h-7.5l4.7-21.1H582.9z"/>
	<path class="st0" d="M626,415.5h-6.1l0.6-5.7h-14.1l-5.1,5.7h-6.1l26.1-28.4h7.1L626,415.5z M610.9,404.9h10l1-11.7h-0.2
		L610.9,404.9z"/>
	<path class="st0" d="M662,387.1h6.1l-21.4,19.4l-4.5,8.9h-5.7l4.5-8.9l-1.9-19.4h6.1l1.2,13.8h0.4L662,387.1z"/>
	<path class="st0" d="M708,387.1l-2.3,4.7h-9.8L684,415.5h-5.7l11.9-23.7h-9.8l2.3-4.7H708z"/>
	<path class="st0" d="M726.3,386.3c9,0,12.1,6.3,7.8,15c-4.4,8.7-13.8,15-22.8,15c-9,0-12.1-6.3-7.8-15
		C707.9,392.6,717.4,386.3,726.3,386.3z M723.9,391.2c-5.3,0-11.4,4.1-14.5,10.1c-3.1,6.1-1,10.1,4.3,10.1s11.4-4.1,14.5-10.1
		C731.2,395.2,729.2,391.2,723.9,391.2z"/>
	<path class="st0" d="M773.1,387.1c7.7,0,9.8,4.1,7.1,9.3c-3.1,6.1-9.4,8.1-9.4,8.1l-0.1,0.2l2.2,10.7h-6.7l-1.8-9.7h-7.9l-4.9,9.7
		h-5.7l14.2-28.4H773.1z M770.8,391.8h-7.3l-4.7,9.3h7.3c3.9,0,7.1-2.4,8.3-4.7C775.7,393.8,774.6,391.8,770.8,391.8z"/>
	<path class="st0" d="M792.1,387.1h22.8l-2.3,4.7h-17.1l-3.7,7.3h11.8l-2.3,4.7h-11.8l-3.6,7.1h17.5l-2.3,4.7h-23.2L792.1,387.1z"/>
	<path class="st0" d="M834.3,415.5h-6.1l0.6-5.7h-14.1l-5.1,5.7h-6.1l26.1-28.4h7.1L834.3,415.5z M819.2,404.9h10l1-11.7H830
		L819.2,404.9z"/>
	<path class="st0" d="M875.1,389.1l-4.4,3.8c0,0-2-1.8-5.8-1.8c-6.1,0-12.2,4.1-15.3,10.1c-3.1,6.1-1,10.1,5.1,10.1
		c4.1,0,8.3-2.2,8.3-2.2l0.5,3.8c0,0-5.5,3.2-11.6,3.2c-9.4,0-12.5-6.3-8.2-15c4.4-8.7,13.8-15,23.2-15
		C872.8,386.3,875.1,389.1,875.1,389.1z"/>
	<path class="st0" d="M908,387.1l-14.2,28.4h-5.7l5.9-11.7h-14.7l-5.9,11.7h-5.7l14.2-28.4h5.7l-6,12h14.7l6-12H908z"/>
	<path class="st0" d="M905.9,409.8c1.8,0,2.6,1.4,1.7,3c-0.8,1.6-3,3-4.8,3c-1.8,0-2.5-1.4-1.7-3C901.9,411.2,904,409.8,905.9,409.8
		z"/>
	<path class="st0" d="M916.8,409.8c1.8,0,2.5,1.4,1.7,3c-0.8,1.6-3,3-4.8,3c-1.8,0-2.6-1.4-1.7-3
		C912.8,411.2,914.9,409.8,916.8,409.8z"/>
</g>
<path class="st1" d="M919.7,271.5c3,3.6-16.3-76.5-172.6-99.2C609.3,158.2,476.4,68.8,359.7,94.1c-116.7,25.3-138.5,41.4-138.5,41.4
	S65.8,152.4,53.8,163.6c-12,11.3,70.3,126.6,70.3,126.6s-30.2-73.7-26.7-98c3.5-24.3,101.3-26.4,156.8-14.5
	c55.5,11.9,183.5,45.7,245.4,43.6c61.9-2.1,101.2-24.6,101.2-24.6s-85.8,16.2-161.7,2.1c-75.9-14.1-159.6-47.8-149.8-58.4
	c9.8-10.5,94.2-30.2,142-25.3c47.8,4.9,214.5,63.3,291.8,70.3C809,192.6,872.3,215.2,919.7,271.5z"/>
<g>
	<path class="st2" d="M135.3,53.8c0,0,95.5,25,164.4,42.8c-16.6,4.2-30.3,8-41.4,11.4l-81.7-19.8C158.2,83.7,143,71,135.3,53.8
		L135.3,53.8z"/>
	<path class="st2" d="M350.3,84.7c-10.4,2.3-20.1,4.4-29,6.5L161.1,52.2c-18.3-4.5-33.5-17.2-41.2-34.4l0,0c0,0,211.4,54.4,248.3,64
		C362.1,82.5,356.2,83.5,350.3,84.7z"/>
	<path class="st2" d="M150.7,89.8c0,0,27.2,7.4,90.5,23.7c-23.3,8-29.4,12.6-29.4,12.6s-2.9,0.3-7.9,0.9l-11.9-2.8
		C173.6,119.8,158.4,107.1,150.7,89.8L150.7,89.8z"/>
</g>
<g>
	<path class="st1" d="M116.8,294.4l9-22.3h112.2l-9,22.3h-42.2l-30.6,75.7h-29.4l30.6-75.7H116.8z"/>
	<polygon class="st1" points="224.9,317 223.6,317 197.8,317 188.6,339.3 223.6,339.3 224.9,339.3 250.8,339.3 260,317 	"/>
	<path class="st2" d="M288.4,370.1H259l39.5-98h77.9c13.3,0,21.3,2.4,24.2,7.3c2.9,5,2.5,11.9-1.2,20.9l-3.2,7.8
		c-3.7,9.2-9,16.2-15.7,20.9c-6.9,4.8-16.8,7.3-29.9,7.3h-48.5L288.4,370.1z M345.8,314c7.9,0,13.4-1.2,16.5-3.7
		c3.3-2.6,5.2-4.6,5.9-6.1c0.4-1.5,0.1-3.5-1-6.1c-1.1-2.5-5.6-3.7-13.5-3.7H319L311,314H345.8z"/>
	<path class="st2" d="M413.7,370.1h-29.4l39.5-98h29.4L413.7,370.1z"/>
	<path class="st2" d="M535.7,370.1h-77.5c-6.5,0-11.8-0.6-15.8-1.8c-4-1.2-6.9-2.9-8.6-5.2c-1.7-2.3-2.5-5.2-2.3-8.8
		c0.2-3.5,1.3-7.7,3.2-12.4l28.2-69.8h29.7l-24.2,60.1c-2.1,5.1-2.5,8.9-1.1,11.6c1.4,2.6,5.7,4,12.8,4h64.5l-3,7.8L535.7,370.1z"/>
	<path class="st2" d="M668.9,341.9c-3.5,9-8.7,16-15.7,20.9c-6.6,4.8-16.6,7.3-29.9,7.3h-43.2c-11.5,0-19.3-2.2-23.3-6.5
		c-4-4.3-4.1-11.6-0.2-21.7l16.9-41.5c3.8-9.5,9.4-16.5,16.7-21c7.3-4.6,17.1-7,29.4-7.2h43.2c13.3,0,21.3,2.4,24.2,7.3
		c2.9,5,2.5,11.9-1.2,20.9L668.9,341.9z M643.3,332.4l9.1-22.5c2-5.4,2.5-9.3,1.4-11.8c-1.1-2.5-5.6-3.7-13.5-3.7h-16.5
		c-7.1,0-12.4,1.3-16,4c-3.5,2.6-6.3,6.5-8.4,11.6l-9,22.3c-2.1,5.1-2.5,8.9-1.1,11.6c1.4,2.6,5.7,4,12.8,4h16.6
		c7.8,0,13.2-1.2,16.4-3.7C638.4,341.4,641.1,337.5,643.3,332.4z"/>
	<path class="st2" d="M698,294.4l9-22.3h112.2l-9,22.3h-42.2l-30.6,75.7h-29.4l30.6-75.7H698z"/>
	<path class="st2" d="M914.2,352c-2.7,4.3-6.8,8.4-12.3,12.3c-5.5,3.8-11.8,5.7-18.9,5.7h-93.6l9-22.3h77.5c2.1,0,3.4-0.5,3.7-1.5
		c0.2-0.4,0.3-0.7,0.2-0.8c0.2-1.7,0-2.6-0.7-2.9l-56.4-24.5c-7.1-2.8-8.8-8.6-5.2-17.2c0.8-2,1.5-3.7,2.1-5.1
		c0.6-1.4,1.2-2.4,1.8-3.2c0.9-0.9,1.8-2,2.8-3.2c1-1.2,1.9-2.6,2.8-4.1c2-3.1,6.6-6.1,13.7-9c7-2.8,14.7-4.2,23.1-4.2h82.8l-9.3,23
		h-82.8c-1.8,0-3.2,1-4.2,3c-0.3,1.4-0.3,2,0,2l62.3,27.7c4.1,1.8,5.9,5.3,5.4,10.5c-0.1,3.8-0.9,7.4-2.4,10.8l-0.7,1.5
		C914.7,351.1,914.5,351.6,914.2,352z"/>
</g>
<g>
	<path class="st3" d="M127.9,262.6v-5.6h23.9c1.5,0,2.6-0.4,3.4-1.1c0.8-0.8,1.2-1.8,1.2-3c0-1.4-0.4-2.4-1.2-3.1
		c-0.8-0.7-1.9-1-3.4-1h-14.6c-1.5,0-2.8-0.2-4.1-0.7c-1.2-0.5-2.2-1.1-3.1-1.9c-0.8-0.8-1.5-1.8-1.9-2.9c-0.5-1.1-0.7-2.3-0.7-3.6
		c0-1.3,0.2-2.5,0.6-3.6c0.4-1.1,1.1-2,1.9-2.8c0.8-0.8,1.9-1.4,3.1-1.9s2.6-0.7,4.2-0.7h22.9v5.6h-22.9c-1.3,0-2.3,0.3-3,1
		c-0.7,0.7-1.1,1.6-1.1,2.9s0.4,2.2,1.1,2.8c0.7,0.7,1.7,1,2.9,1h14.6c3.2,0,5.7,0.8,7.4,2.3c1.7,1.5,2.5,3.8,2.5,6.9
		c0,1.3-0.2,2.6-0.6,3.7c-0.4,1.1-1,2.1-1.8,3c-0.8,0.8-1.8,1.5-3.1,1.9c-1.2,0.5-2.7,0.7-4.4,0.7H127.9z"/>
	<path class="st3" d="M164.3,230.8h6.8l14.5,24.5l14.4-24.5h6.4L188,261.3c-0.3,0.6-0.7,1-1.1,1.3s-0.9,0.5-1.5,0.5
		c-0.6,0-1.1-0.2-1.6-0.5s-0.8-0.8-1.1-1.3L164.3,230.8z"/>
	<path class="st3" d="M209.7,262.6v-31.8h5.6v26.3h21.4v5.6H209.7z"/>
</g>
<g>
	<polygon class="st0" points="236.6,387.8 125.7,387.8 125.7,391.6 234.6,391.6 	"/>
	<polygon class="st0" points="256.7,387.8 145.8,387.8 145.8,391.6 254.7,391.6 	"/>
	<rect x="125.7" y="399.5" class="st0" width="9.4" height="3.8"/>
	<rect x="143.6" y="399.5" class="st0" width="9.4" height="3.8"/>
	<rect x="161.4" y="399.5" class="st0" width="9.4" height="3.8"/>
	<rect x="179.3" y="399.5" class="st0" width="9.4" height="3.8"/>
	<rect x="197.1" y="399.5" class="st0" width="9.4" height="3.8"/>
	<rect x="215" y="399.5" class="st0" width="9.4" height="3.8"/>
	<rect x="233.2" y="399.5" class="st0" width="9.4" height="3.8"/>
	<path class="st0" d="M230.4,411.2H125.7v3.8h102.7C228.5,414.8,230.4,411.2,230.4,411.2z"/>
	<path class="st0" d="M249.5,411.2H144.8v3.8h102.7C247.5,414.8,249.5,411.2,249.5,411.2z"/>
</g>
<g>
</g>
<g>
</g>
<g>
</g>
<g>
</g>
<g>
</g>
<g>
</g>
</svg>
