<svg xmlns="http://www.w3.org/2000/svg" xmlns:xlink="http://www.w3.org/1999/xlink" viewBox="0 0 932.35 245.16"><defs><radialGradient id="radial-gradient" cx="114.49" cy="111.95" r="114.49" gradientTransform="matrix(1, 0, 0, -1, 0, 226.44)" gradientUnits="userSpaceOnUse"><stop offset="0.02" stop-color="#94fff1"/><stop offset="0.42" stop-color="#0af"/><stop offset="0.55" stop-color="#008ce0"/><stop offset="0.75" stop-color="#0065b7"/><stop offset="0.91" stop-color="#004c9d"/><stop offset="1" stop-color="#004394"/></radialGradient></defs><g id="Layer_2" data-name="Layer 2"><g id="Layer_1-2" data-name="Layer 1"><path d="M335,164.33V203H312.7V106.2A11.27,11.27,0,0,1,324,94.89h36.77q17.27,0,25.76,8.8,8.79,8.79,8.8,26.08,0,16.33-8.48,25.76-8.49,8.81-24.51,8.8Zm0-19.48h21.68c5.86,0,10.06-1.26,12.57-3.77q4.08-3.45,4.08-11.94,0-7.23-3.77-11.63-4.4-3.77-11.62-3.77H335Z" style="fill:#0674ed"/><path d="M401.84,203V162.45q0-12.25,3.61-20.58a34.12,34.12,0,0,1,9.9-13.36,39,39,0,0,1,14-6.91,62.29,62.29,0,0,1,16.5-2.2H449v22.31h-7.23q-9.11,0-13.51,4.4t-4.4,13.82v43Z" style="fill:#0674ed"/><path d="M464,195.44a31,31,0,0,1-9.42-15.24,70,70,0,0,1-2.83-19.95,63.2,63.2,0,0,1,2.35-17,35.19,35.19,0,0,1,7.39-14.14A32.61,32.61,0,0,1,482.49,118q12.88-1.72,23.25,2a32,32,0,0,1,17.6,16.34q5.34,10.37,5.34,24.19a59.56,59.56,0,0,1-2.2,17.28,44.36,44.36,0,0,1-5.65,12.26q-7.55,10.36-19.17,12.88a42.73,42.73,0,0,1-20.9.47Q470.23,201.1,464,195.44ZM479,140.14q-6.6,7.23-6,21.52t5.35,20q1.88,2.52,6.6,4.25a15,15,0,0,0,9.58.31c3.24-.94,6.13-3.3,8.64-7.07s3.87-9.84,4.09-18.23q0-11.31-3.62-17t-8.32-7.23a15.28,15.28,0,0,0-9.43-.16A16.36,16.36,0,0,0,479,140.14Z" style="fill:#0674ed"/><path d="M534.55,203V106.2a11.27,11.27,0,0,1,11.31-11.31h11V203Z" style="fill:#f7941d"/><path d="M636.33,203h-11a10.23,10.23,0,0,1-10.69-10.68V149.57q0-7.55-4.55-11a16.46,16.46,0,0,0-10.22-3.46,15.78,15.78,0,0,0-10,3.46q-4.41,3.47-4.4,11V203h-22V154q0-21.36,11.15-28.59a48.8,48.8,0,0,1,24.67-7.86,47.37,47.37,0,0,1,25.45,7.23Q636.34,132,636.33,154v49Z" style="fill:#f7941d"/><path d="M641.93,175.33h21.36q.32,6.28,4.72,9.43,4.71,3.13,12.57,3.14a20.25,20.25,0,0,0,9.74-2.2c2.51-1.46,3.77-3.46,3.77-6q0-5.65-13.2-8.48a59.73,59.73,0,0,1-8.48-1.89q-16.67-4.08-22.31-9.74-6.3-5.66-6.29-15.08a25.05,25.05,0,0,1,9.11-19.8q9.44-7.21,24.51-7.23,16.34,0,26.08,7.23a27.64,27.64,0,0,1,9.74,20.43H699.74a10,10,0,0,1-9.11-5.35c-.84-.83-1.68-1.67-2.51-2.51q-3.78-2.84-10.37-2.83c-4.19,0-7.34.63-9.43,1.89a6.34,6.34,0,0,0-2.83,5.65q0,5,16.34,8.49a34.14,34.14,0,0,0,3.3.94,12.24,12.24,0,0,0,2.67.31q16,4.1,22.31,9.43,6,5.66,6,15.08,0,13.83-10.05,21.37-9.43,6.92-28.28,6.91-17.91,0-26.71-7.23-9.12-7.22-9.11-21v-.94Z" style="fill:#f7941d"/><path d="M796.46,119.4v49q0,22.31-11.63,29.22a48.86,48.86,0,0,1-25.45,6.91A50.43,50.43,0,0,1,734.72,197q-11.16-6.9-11.16-28.59v-49h22v53.42q0,7.53,4.39,11A15.83,15.83,0,0,0,760,187.27a16.45,16.45,0,0,0,10.21-3.46q4.56-3.45,4.56-11V130.08a10.57,10.57,0,0,1,3-7.54,10.17,10.17,0,0,1,7.7-3.14Z" style="fill:#f7941d"/><path d="M802.33,203V162.45q0-12.25,3.61-20.58a34.12,34.12,0,0,1,9.9-13.36,39,39,0,0,1,14-6.91,62.29,62.29,0,0,1,16.5-2.2h3.14v22.31h-7.23q-9.11,0-13.51,4.4t-4.4,13.82v43Z" style="fill:#f7941d"/><path d="M912.21,177.22h15.71q-3.46,13.18-13.2,20.1-9.75,7.25-24.51,7.23-17.91,0-28-11.62-10.05-11.33-10-32.37,0-20.1,9.74-31.42,10.05-11.62,28-11.63,18.84,0,29.22,11.32,10.05,11.63,10,32.36v3.46a5.4,5.4,0,0,1-.31,2.2H874.5q.32,9.74,4.71,14.45,4.08,5,12.26,5a17.74,17.74,0,0,0,9.11-2.2,4.5,4.5,0,0,0,1.73-1.1L904,181.3a6.83,6.83,0,0,1,2.35-2.52A9.42,9.42,0,0,1,912.21,177.22ZM874.5,152.71h32q-.63-8.49-4.4-12.57-4.08-4.39-11.62-4.4a15.34,15.34,0,0,0-11.32,4.4Q874.82,144.54,874.5,152.71Z" style="fill:#f7941d"/><rect x="269" y="25.2" width="4.25" height="178.47" style="fill:#bcbcbc"/><path d="M548.78,226l-1.49,2.76a8.9,8.9,0,0,0-5-1.74c-2.58,0-3.8,1.31-3.8,2.32,0,4.07,10.71,2,10.71,9.16,0,3.49-2.85,6.54-8.27,6.54a10.94,10.94,0,0,1-7.19-2.76l1.63-2.76a8.26,8.26,0,0,0,5.29,2.18c3.12,0,4.61-1.6,4.61-3.2,0-3.64-10.72-1.75-10.72-9.16,0-2.9,2.72-5.81,7.46-5.81A10.89,10.89,0,0,1,548.78,226Z" style="fill:#6b6b6b"/><path d="M553.61,224.12H568.8v3.34H557.41v5.23h7.86V236h-7.86v5.08h11.66v3.35H553.61V224.12Z" style="fill:#6b6b6b"/><path d="M589.1,225.57l-1.63,2.76A8.88,8.88,0,0,0,583,227c-4.07,0-6.79,2.9-6.79,7.26s2.72,7.27,6.79,7.27a8.42,8.42,0,0,0,4.74-1.6l1.63,2.76a10.58,10.58,0,0,1-6.64,2.33c-6.24,0-10.45-4.51-10.45-10.76s4.21-10.75,10.45-10.75A10.6,10.6,0,0,1,589.1,225.57Z" style="fill:#6b6b6b"/><path d="M593.55,236.33V224.12h3.8v12.21c0,3.19,1.9,5.23,4.88,5.23s4.89-2,4.89-5.23V224.12h3.8v12.21c0,5.08-3.4,8.72-8.69,8.72S593.55,241.41,593.55,236.33Z" style="fill:#6b6b6b"/><path d="M625.24,224.12c5.16,0,7.87,2.91,7.87,6.69a6.25,6.25,0,0,1-3.53,5.81v.14l5,7.71h-4.47l-4.48-7h-5.29v7h-3.8V224.12Zm0,3.34h-4.88v6.69h4.88c2.58,0,3.94-1.75,3.94-3.34C629.18,228.91,627.82,227.46,625.24,227.46Z" style="fill:#6b6b6b"/><path d="M638.54,224.12h15.19v3.34H642.34v5.23h7.86V236h-7.86v5.08H654v3.35H638.54Z" style="fill:#6b6b6b"/><path d="M680.05,229.35l-3.93,15.12h-5l-5.29-20.35h4.07l3.93,15.26H674l3.88-15.26h4.58l3.88,15.26h.14l3.93-15.26h4.07l-5.29,20.35h-5l-3.93-15.12Z" style="fill:#6b6b6b"/><path d="M702.28,244.47h-3.8V224.12h3.8Z" style="fill:#6b6b6b"/><path d="M723.14,224.12v3.34h-6.51v17h-3.8v-17h-6.51v-3.34Z" style="fill:#6b6b6b"/><path d="M744.55,224.12v20.35h-3.8V236H731v8.43h-3.8V224.12H731v8.57h9.76v-8.57Z" style="fill:#6b6b6b"/><path d="M758.48,224.12h15.87v3.34L763.22,241v.14h11.26v3.35H758.2v-3.35l11.13-13.51v-.15H758.47v-3.34Z" style="fill:#6b6b6b"/><path d="M778.91,224.12H794.1v3.34H782.7v5.23h7.87V236H782.7v5.08h11.67v3.35H778.9V224.12Z" style="fill:#6b6b6b"/><path d="M807.34,224.12c5.16,0,7.87,2.91,7.87,6.69a6.25,6.25,0,0,1-3.53,5.81v.14l5,7.71h-4.47l-4.48-7h-5.29v7h-3.8V224.12Zm0,3.34h-4.88v6.69h4.88c2.58,0,3.94-1.75,3.94-3.34C811.28,228.91,809.92,227.46,807.34,227.46Z" style="fill:#6b6b6b"/><path d="M829.73,223.54c6,0,10.17,4.5,10.17,10.75s-4.2,10.76-10.17,10.76-10.18-4.51-10.18-10.76S823.76,223.54,829.73,223.54Zm0,3.49c-3.53,0-6.24,2.9-6.24,7.26s2.71,7.27,6.24,7.27,6.24-2.91,6.24-7.27S833.25,227,829.73,227Z" style="fill:#6b6b6b"/><path d="M869.53,225.57l-1.63,2.76a8.88,8.88,0,0,0-4.47-1.3c-4.07,0-6.79,2.9-6.79,7.26s2.72,7.27,6.79,7.27a8.47,8.47,0,0,0,4.75-1.6l1.62,2.76a10.55,10.55,0,0,1-6.64,2.33c-6.24,0-10.45-4.51-10.45-10.76s4.21-10.75,10.45-10.75A10.6,10.6,0,0,1,869.53,225.57Z" style="fill:#6b6b6b"/><path d="M892.62,244.47h-4.07l-1.49-4.07H877.7l-1.49,4.07h-4.07L880,224.12h4.75Zm-13.56-7.56h6.64l-3.25-8.43h-.14Z" style="fill:#6b6b6b"/><path d="M910.15,226l-1.49,2.76a8.86,8.86,0,0,0-5-1.74c-2.58,0-3.8,1.31-3.8,2.32,0,4.07,10.72,2,10.72,9.16,0,3.49-2.85,6.54-8.27,6.54a10.94,10.94,0,0,1-7.19-2.76l1.62-2.76a8.26,8.26,0,0,0,5.29,2.18c3.12,0,4.62-1.6,4.62-3.2,0-3.64-10.72-1.75-10.72-9.16,0-2.9,2.71-5.81,7.46-5.81A10.85,10.85,0,0,1,910.15,226Z" style="fill:#6b6b6b"/><path d="M932.35,224.12v20.35h-3.8V236h-9.77v8.43H915V224.12h3.8v8.57h9.77v-8.57Z" style="fill:#6b6b6b"/><path d="M314.64,86.76V76h46.11q4.32,0,6.64-2.19A7.68,7.68,0,0,0,369.72,68q0-4-2.33-6a10,10,0,0,0-6.64-2H332.49a22.1,22.1,0,0,1-7.83-1.31,16.76,16.76,0,0,1-5.92-3.64A15.82,15.82,0,0,1,315,49.53a18.28,18.28,0,0,1-1.31-7,19.18,19.18,0,0,1,1.22-6.9,14.85,14.85,0,0,1,3.64-5.45,17.23,17.23,0,0,1,6-3.6,23.44,23.44,0,0,1,8.12-1.31h44.17V36H332.66a7.89,7.89,0,0,0-5.75,2,7.4,7.4,0,0,0-2,5.55A7.2,7.2,0,0,0,327,49,7.92,7.92,0,0,0,332.58,51h28.17q9.39,0,14.26,4.4t4.86,13.37a21.14,21.14,0,0,1-1.18,7.19,15.54,15.54,0,0,1-3.56,5.71,16.27,16.27,0,0,1-6,3.77,24,24,0,0,1-8.42,1.35Z" style="fill:#f7941d"/><path d="M385,25.25h13.11L426,72.63l27.84-47.38h12.35L430.72,84.14a8.11,8.11,0,0,1-2.2,2.54,4.88,4.88,0,0,1-3,.93,5,5,0,0,1-3.05-.93,8.24,8.24,0,0,1-2.2-2.54Z" style="fill:#f7941d"/><path d="M472.77,86.76V25.25h10.74V76h41.38V86.76Z" style="fill:#f7941d"/><path d="M165.64,115.33a14.78,14.78,0,1,0,14.77,14.77A14.77,14.77,0,0,0,165.64,115.33Zm0,23.46a8.7,8.7,0,1,1,8.69-8.69A8.69,8.69,0,0,1,165.64,138.79Z" style="fill:#e89400"/><path d="M165.64,124.76A5.34,5.34,0,1,0,171,130.1,5.33,5.33,0,0,0,165.64,124.76Z" style="fill:#e89400"/><path d="M73.62,124.76A5.34,5.34,0,1,0,79,130.1,5.32,5.32,0,0,0,73.62,124.76Z" style="fill:#e89400"/><path d="M73.58,115.33A14.78,14.78,0,1,0,88.35,130.1,14.78,14.78,0,0,0,73.58,115.33Zm0,23.46a8.7,8.7,0,1,1,8.69-8.69A8.69,8.69,0,0,1,73.58,138.79Z" style="fill:#e89400"/><path d="M183.47,113s-27.82-6.12-31.21-7.93-20.74-13.86-32.6-14.92H90.57s-8.16,1.27-13.86,4.23S62.11,101.79,58,102s-11.32,1.79-13.44,3.92v8.35l-2.1,1.17A4.8,4.8,0,0,0,40,119.64v6.18s1.17,3.6,2.76,3.91a76.26,76.26,0,0,0,10.06,2.12h3.82a14.55,14.55,0,0,1-.09-1.75,17.05,17.05,0,1,1,34,1.75h58.13c0-.57-.08-1.17-.08-1.75a17.05,17.05,0,0,1,34.1,0,14.55,14.55,0,0,1-.09,1.75h7.14a1.42,1.42,0,0,0,.83-.27,1.4,1.4,0,0,0,.52-.69v-9.41S188.76,115.23,183.47,113ZM76.34,108.39A7.37,7.37,0,0,1,69,101c2.55-1.15,5.48-2.59,8.92-4.39,4.82-2.48,11.7-3.74,12.89-3.94h11.4l3.29,15.7Zm34.85,0-3.29-15.7h11.64c9.15.88,22.12,8.87,28.36,12.73,1.44.9,2.48,1.54,3.16,1.9a18.33,18.33,0,0,0,2.92,1.07Z" style="fill:#e89400"/><path d="M195,33.18a117,117,0,0,0-10.37-9A114.33,114.33,0,0,0,39.28,200.6q4,3.54,8.4,6.68A114.36,114.36,0,0,0,195,33.18Zm-18.35,5.23.18-.06a1.08,1.08,0,0,1-.18.11ZM55.67,193.74l-.17.07a1.08,1.08,0,0,0,.18-.11S55.67,193.73,55.67,193.74Zm58.83,25.32a104,104,0,0,1-57.31-17.19c.19-.1.38-.22.57-.31a67,67,0,0,1,9.53-3.48c3.85-1.15,7.78-2.34,11.88-1.28,3.08.78,6.19,1.59,9.23,2.59,4.1,1.38,8.11,3,12.2,4.42,3.11,1.07,6.27,1.93,9.39,2.92a69.66,69.66,0,0,0,12.87,2.32c4.13.47,8-.7,11.82-2.16,4.58-1.77,9.13-3.7,13.55-5.87,5.48-2.69,10.9-5.53,16.16-8.61a91.25,91.25,0,0,0,16.88-13.19c3-2.84,5.84-5.81,7.46-9.69.89-2.11.67-5.31-2.68-5.71a7,7,0,0,0-3.61.45,68.12,68.12,0,0,0-6,3.44c-.54.31-1,.7-1.56,1.07-.08-.09-.15-.18-.23-.26a9.17,9.17,0,0,0,.55-.77,12.18,12.18,0,0,0,1.36-2.94c.58-2.77-2.42-4.69-5.21-4a34.81,34.81,0,0,0-9.71,4.47l-2.92,1.79a1.55,1.55,0,0,0,0-.21c1-1.53,3.6-6.41-3.37-5a4.21,4.21,0,0,0-1.09.29c-2.86,1.06-5.74,2.06-8.56,3.24-.56.22-1.11.47-1.67.71h0s7.92-5.71-.69-3.63c0,0-9.79,3.3-12.3,5.89-2.3,1.83,2.72,2.24,2.68,2.26,2.49.62,4.84,1.15,7.17,1.76a16,16,0,0,1,8.8,5.34c1.13,1.43,1.94,2.88,1.2,4.87-1.18,3.17-3.61,5.07-6.35,6.65-4.1,2.36-8.72,2.87-13.28,3.19a55,55,0,0,1-7.69-.33,47,47,0,0,1-15.93-3.55,26.33,26.33,0,0,1-10.39-7.8,5,5,0,0,1-.51-1.3c.51,0,1.07-.25,1.5-.08,3.58,1.3,7.22,2.47,10.64,4.09,5.15,2.45,10.62,3.32,16.21,3.66a37.31,37.31,0,0,0,5.86-.34,55.15,55.15,0,0,0,6.28-.74,15.08,15.08,0,0,0,7.07-3.36c1.51-1.3,1.53-2.73-.19-3.67a26.51,26.51,0,0,0-5.5-1.91c-2.84-.77-5.7-1.41-8.56-2-6.16-1.39-11.41-4.66-16.6-8-5.59-3.63-11.1-7.39-16.74-10.95A29.53,29.53,0,0,0,86.22,152a30.56,30.56,0,0,0-11.39.26,31.12,31.12,0,0,0-14.27,7c-3.13,2.68-5.89,5.79-8.83,8.69a38,38,0,0,1-5.24,4.93c-3.15,2.13-6.54,3.86-9.88,5.69-.6.33-1,.65-1.12,1.15l-1,1.09.33,1.38A104.42,104.42,0,0,1,175.16,29.49l-.8.43A76.56,76.56,0,0,1,164,33.71c-4.19,1.24-8.45,2.53-12.91,1.4-3.36-.86-6.74-1.73-10-2.84-4.46-1.48-8.83-3.27-13.29-4.8-3.36-1.16-6.8-2.09-10.2-3.15a74.8,74.8,0,0,0-14-2.54c-4.47-.51-8.75.75-12.83,2.34-5,1.93-9.94,4-14.75,6.38-6,2.93-11.84,6-17.56,9.37A99.58,99.58,0,0,0,40.05,54.21c-3.23,3.09-6.34,6.32-8.1,10.55-1,2.29-.73,5.76,2.92,6.21a7.56,7.56,0,0,0,3.92-.51,74.05,74.05,0,0,0,6.47-3.71c.6-.36,1.14-.79,1.71-1.17l.24.27a8.17,8.17,0,0,0-.6.85,14.14,14.14,0,0,0-1.48,3.19c-.62,3,2.64,5.1,5.67,4.31a37.79,37.79,0,0,0,10.56-4.86c.94-.59,1.91-1.18,3.18-2,0,.09,0,.15-.05.22-1.06,1.67-3.91,7,3.68,5.4a6.68,6.68,0,0,0,1.18-.31c3.11-1.15,6.23-2.24,9.29-3.52,1-.41,2-.85,3-1.27-2.39,1.57-6.94,5-.1,4.29,0,0,11.65-3.29,14.49-5.52,2.94-1.74.59-1.48-4.33-3.16a1.42,1.42,0,0,0-.29-.1h0c-2.57-.64-5-1.21-7.45-1.84a17.35,17.35,0,0,1-9.56-5.8c-1.23-1.54-2.12-3.14-1.31-5.3C74.3,47,77,45,79.93,43.25c4.45-2.56,9.47-3.11,14.44-3.48a61.77,61.77,0,0,1,8.36.37A51.27,51.27,0,0,1,120.06,44a28.63,28.63,0,0,1,11.29,8.48,5.92,5.92,0,0,1,.55,1.41,4.05,4.05,0,0,1-1.64.11c-3.87-1.43-7.83-2.69-11.56-4.47-5.6-2.66-11.54-3.62-17.62-4a45.44,45.44,0,0,0-6.37.36,64.12,64.12,0,0,0-6.82.81,16.58,16.58,0,0,0-7.7,3.65c-1.64,1.44-1.67,3,.21,4a28.73,28.73,0,0,0,6,2.06c3.08.84,6.19,1.53,9.3,2.24,6.7,1.52,12.41,5.06,18,8.72,6.08,4,12.07,8.06,18.2,11.92a31.89,31.89,0,0,0,11.48,4.54,33.14,33.14,0,0,0,12.39-.27A34,34,0,0,0,171.32,76c3.4-2.9,6.39-6.3,9.59-9.45,1.86-1.83,3.57-3.93,5.7-5.36C190,58.89,193.74,57,197.35,55c.66-.38,1.09-.71,1.21-1.26l.49-.54A104.37,104.37,0,0,1,114.5,219.06Zm5.86-27,0,0,.07.07ZM106.29,40.26h-.06l-.08-.06Z" style="fill:url(#radial-gradient)"/><path d="M448.31,220.33H312.13v3.74H447.32C447.49,222.82,448,221.58,448.31,220.33Z" style="fill:#6b6b6b"/><path d="M518.25,220.33H382.07v3.74h135.2C517.43,222.82,518,221.58,518.25,220.33Z" style="fill:#6b6b6b"/><rect x="312.13" y="230.67" width="9.17" height="3.74" style="fill:#6b6b6b"/><rect x="329.61" y="230.67" width="9.16" height="3.74" style="fill:#6b6b6b"/><rect x="347.1" y="230.67" width="9.16" height="3.74" style="fill:#6b6b6b"/><rect x="364.58" y="230.67" width="9.17" height="3.74" style="fill:#6b6b6b"/><rect x="382.07" y="230.67" width="9.16" height="3.74" style="fill:#6b6b6b"/><rect x="399.56" y="230.67" width="9.16" height="3.74" style="fill:#6b6b6b"/><rect x="417.04" y="230.67" width="9.17" height="3.74" style="fill:#6b6b6b"/><rect x="434.53" y="230.67" width="9.17" height="3.74" style="fill:#6b6b6b"/><rect x="453.82" y="230.67" width="9.17" height="3.74" style="fill:#6b6b6b"/><rect x="471.3" y="230.67" width="9.16" height="3.74" style="fill:#6b6b6b"/><rect x="488.79" y="230.67" width="9.16" height="3.74" style="fill:#6b6b6b"/><rect x="506.27" y="230.67" width="9.16" height="3.74" style="fill:#6b6b6b"/><path d="M441.31,244.85c.38-1,.82-2.06,1.24-3.08l.14-.36H312.13v3.75H441.27C441.28,245.06,441.29,245,441.31,244.85Z" style="fill:#6b6b6b"/><path d="M514.06,244.85c.38-1,.82-2.06,1.24-3.08l.14-.36H384.88v3.75H514C514,245.06,514,245,514.06,244.85Z" style="fill:#6b6b6b"/></g></g></svg>